<?xml version="1.0" encoding="utf-8" ?>	<!-- Generator: Assembly 2.4 - http://assemblyapp.co -->	<svg version="1.1" xmlns="http://www.w3.org/2000/svg" xmlns:xlink="http://www.w3.org/1999/xlink" width="4096.00" height="4096.00" viewBox="0 0 4096.0 4096.0">		<g id="document" transform="scale(13.653333333333334 13.653333333333334) translate(150.0 150.0)">			<path d="M67.5303,36.7056 C61.3461,25.1315 37.7322,7.41474 37.7322,7.41474 C45.4283,-3.12203 46.6214,-13.178 46.6214,-27.31 C46.6214,-62.6241 18.0257,-91.3921 -17.4607,-91.3921 C-52.7747,-91.3921 -81.5428,-62.7963 -81.5428,-27.31 C-81.5428,8.00405 -52.947,36.7721 -17.4607,36.7721 C-3.57879,36.7721 6.70622,34.0595 17.2327,26.4613 C17.2327,26.4613 35.9843,54.4272 46.7529,57.8788 C57.5214,61.3305 73.7145,48.2797 67.5303,36.7056 Z M-17.4607,17.134 C-41.9221,17.134 -61.7324,-2.6763 -61.7324,-27.1377 C-61.7324,-51.5992 -41.9221,-71.4095 -17.4607,-71.4095 C7.00078,-71.4095 26.8111,-51.5992 26.8111,-27.1377 C26.8111,-2.6763 7.00078,17.134 -17.4607,17.134 Z " fill="#5c5c5c" fill-opacity="1.00" stroke-width="6.39" stroke="#5c5c5c" stroke-linecap="square" stroke-linejoin="miter" />		</g>	</svg>