<?xml version="1.0" encoding="utf-8" ?>	<!-- Generator: Assembly 2.4 - http://assemblyapp.co -->	<svg version="1.1" xmlns="http://www.w3.org/2000/svg" xmlns:xlink="http://www.w3.org/1999/xlink" width="4096.00" height="4096.00" viewBox="0 0 4096.0 4096.0">		<g id="document" transform="scale(13.653333333333334 13.653333333333334) translate(150.0 150.0)">			<path d="M-104.17,69.8246 L-124.608,146.114 L-55.634,107.926 C-38.7096,115.717 -19.8658,120.061 1.28463e-06,120.061 C73.5481,120.061 133.087,60.5216 133.087,-13.0265 C133.087,-86.5746 73.5481,-146.114 1.28463e-06,-146.114 C-73.5481,-146.114 -133.087,-86.5746 -133.087,-13.0265 C-133.087,16.3519 -120.268,47.8185 -104.17,69.8246 Z M-54.3487,-14.7764 C-54.3922,-4.01447 -63.1516,4.67461 -73.9136,4.63119 C-84.6755,4.58777 -93.3646,-4.1717 -93.3212,-14.9336 C-93.2778,-25.6956 -84.5183,-34.3847 -73.7563,-34.3412 C-62.9944,-34.2978 -54.3053,-25.5383 -54.3487,-14.7764 Z M19.49,-13.8818 C19.4466,-3.11987 10.6871,5.56921 -0.0748498,5.52579 C-10.8368,5.48237 -19.5259,-3.2771 -19.4824,-14.039 C-19.439,-24.801 -10.6796,-33.4901 0.0823854,-33.4466 C10.8443,-33.4032 19.5334,-24.6437 19.49,-13.8818 Z M93.3311,-13.5839 C93.2877,-2.82195 84.5282,5.86712 73.7663,5.82371 C63.0043,5.78029 54.3153,-2.97919 54.3587,-13.7411 C54.4021,-24.5031 63.1616,-33.1921 73.9235,-33.1487 C84.6855,-33.1053 93.3745,-24.3458 93.3311,-13.5839 Z " fill="#5f5f5f" fill-opacity="1.00" />		</g>	</svg>