<?xml version="1.0" encoding="utf-8" ?>	<!-- Generator: Assembly 2.4 - http://assemblyapp.co -->	<svg version="1.1" xmlns="http://www.w3.org/2000/svg" xmlns:xlink="http://www.w3.org/1999/xlink" width="4096.00" height="4096.00" viewBox="0 0 4096.0 4096.0">		<g id="document" transform="scale(13.653333333333334 13.653333333333334) translate(150.0 150.0)">			<path d="M-101.246,52.8531 C-121.464,35.5807 -133.865,13.3315 -133.865,-11.2597 C-133.865,-65.4188 -73.4792,-109.332 0.924642,-109.332 C75.3285,-109.332 135.714,-65.4188 135.714,-11.2597 C135.714,42.8995 75.3285,86.8124 0.924642,86.8124 C-21.9896,86.8124 -43.5559,82.7139 -62.4265,75.3951 L-133.865,119.893 L-101.246,52.8531 Z M-62.9216,-37.9275 C-74.6693,-37.9275 -84.2037,-28.3932 -84.2037,-16.6454 C-84.2037,-4.89772 -74.6693,4.63665 -62.9216,4.63665 C-51.1739,4.63665 -41.6395,-4.89772 -41.6395,-16.6454 C-41.6395,-28.3932 -51.1739,-37.9275 -62.9216,-37.9275 Z M64.7709,-37.9275 C53.0232,-37.9275 43.4888,-28.3932 43.4888,-16.6454 C43.4888,-4.89772 53.0232,4.63665 64.7709,4.63665 C76.5186,4.63665 86.053,-4.89772 86.053,-16.6454 C86.053,-28.3932 76.5186,-37.9275 64.7709,-37.9275 Z M0.924642,-37.9275 C-10.8231,-37.9275 -20.3575,-28.3932 -20.3575,-16.6454 C-20.3575,-4.89772 -10.8231,4.63665 0.924642,4.63665 C12.6724,4.63665 22.2067,-4.89772 22.2067,-16.6454 C22.2067,-28.3932 12.6724,-37.9275 0.924642,-37.9275 Z " fill="#000000" fill-opacity="1.00" />		</g>	</svg>