<?xml version="1.0" standalone="yes"?>
<svg xmlns="http://www.w3.org/2000/svg" width="1200" height="1200">
<path style="fill:#040303; stroke:none;" d="M0 0L0 1200L1200 1200L1200 1040L520 1040L520 1032L488 1032L488 1024L456 1024L456 1016L440 1016L440 1008L416 1008L416 1000L400 1000L400 992L384 992L384 984L376 984L376 976L360 976L360 968L344 968L344 960L336 960L336 952L328 952L328 944L320 944L320 936L304 936L304 928L296 928L296 920L288 920L288 912L280 912L280 904L272 904L272 888L264 888L264 880L256 880L256 872L248 872L248 864L240 864L240 848L232 848L232 840L224 840L224 824L216 824L216 808L208 808L208 792L200 792L200 776L192 776L192 752L184 752L184 728L176 728L176 696L168 696L168 640L160 640L160 576L168 576L168 512L176 512L176 480L184 480L184 456L192 456L192 440L200 440L200 424L208 424L208 408L216 408L216 392L224 392L224 376L232 376L232 360L240 360L240 352L248 352L248 344L256 344L256 336L264 336L264 320L272 320L272 312L280 312L280 304L288 304L288 296L296 296L296 288L304 288L304 280L312 280L312 272L320 272L320 264L336 264L336 256L344 256L344 248L352 248L352 240L368 240L368 232L384 232L384 224L392 224L392 216L408 216L408 208L432 208L432 200L448 200L448 192L472 192L472 184L504 184L504 176L568 176L568 168L632 168L632 176L688 176L688 184L720 184L720 192L744 192L744 200L768 200L768 208L784 208L784 216L800 216L800 224L816 224L816 232L832 232L832 240L840 240L840 248L856 248L856 256L864 256L864 264L872 264L872 272L880 272L880 280L888 280L888 288L904 288L904 296L912 296L912 304L920 304L920 312L928 312L928 328L936 328L936 336L944 336L944 344L952 344L952 352L960 352L960 368L968 368L968 384L976 384L976 392L984 392L984 408L992 408L992 424L1000 424L1000 448L1008 448L1008 464L1016 464L1016 496L1024 496L1024 528L1032 528L1032 680L1200 680L1200 0L0 0z"/>
<path style="fill:#ce5c5e; stroke:none;" d="M568 168L568 176C587.932 171.908 611.97 172.329 632 176L632 168L568 168z"/>
<path style="fill:#e41d24; stroke:none;" d="M264 336C257.136 337.979 251.768 347.36 247.742 353.001C235.712 369.855 224.941 387.392 215.549 405.83C177.472 480.58 162.068 559.645 167.91 643C179.505 808.435 292.009 949.953 443.996 1011.18C502.326 1034.68 566.688 1041.64 629 1038.9C799.616 1031.38 952.286 906.621 1008.54 748C1026.76 696.632 1030 644.892 1030 591C1030 504.083 997.479 417.232 945.667 347.834C933.629 331.71 920.509 317.176 906.333 303C901.141 297.808 895.498 289.159 888 288C886.303 277.881 865.547 265.21 857.31 259.438C825.047 236.831 791.856 217.201 755 202.965C623.745 152.263 476.611 169.835 359.001 246.301C331.494 264.185 301.96 286.111 281.522 312.036C275.714 319.402 265.306 326.232 264 336z"/>
<path style="fill:#ce5c5e; stroke:none;" d="M504 176L504 184L548 177C536.537 172.19 516.48 176 504 176M650 176L650 177L688 183L688 176L650 176M472 184L472 192L502 185L472 184M696 184L696 185L720 190L720 184L696 184M448 192L448 200L472 194L472 192L448 192M726 192L726 194L744 199L744 192L726 192M432 200L432 207L448 201L432 200M750 200L750 202L768 208L768 200L750 200M408 208L408 216L392 216L392 224L384 224L384 231L428 210L428 208L408 208M770 208L770 210L784 216L784 208L770 208M786 216L786 217L800 223L800 216L786 216M802 224L802 225L816 232L816 224L802 224M368 232L368 240L381 233L368 232M816 232L816 233L840 247L840 240L832 240L832 232L816 232M352 240L352 248L344 248L344 256C351.609 253.343 362.113 246.332 367 240L352 240M842 248L864 264L864 256L856 256L856 248L842 248M336 256L336 262L344 256L336 256M320 264L320 272L312 272L312 280L304 280L304 288L296 288L296 296L334 265L320 264M864 264L872 270L872 264L864 264M874 272L880 278L880 272L874 272M883 280L888 284L888 280L883 280M892 288C900.34 300.392 915.955 316.492 928 325L928 312L920 312L920 304L912 304L912 296L904 296L904 288L892 288M288 296L288 304L296 296L288 296M280 304L280 312L272 312L272 320L264 320L264 332L265 332L288 304L280 304M620 310L620 311L639 311L620 310M600 311L600 312L609 312L600 311z"/>
<path style="fill:#fba09c; stroke:none;" d="M609 311L609 312L648 312C637.726 307.689 620.172 311 609 311z"/>
<path style="fill:#ce5c5e; stroke:none;" d="M648 311L648 312L653 312L648 311M591 312L591 313L595 313L591 312z"/>
<path style="fill:#fba09c; stroke:none;" d="M595 312L595 313L602 313L595 312z"/>
<path style="fill:#fffefe; stroke:none;" d="M574 721L576 721C581.433 738.015 603.402 750.127 619 756.189C664.383 773.827 719.258 763.117 759 736.255C823.05 692.961 853.523 613.014 856.035 538C856.8 515.172 856.702 493.388 851.105 471C846.636 453.126 839.565 435.977 830.421 420C764.667 305.114 602.324 283.635 492 343.309C399.369 393.412 339.895 513.633 386.309 615C396.315 636.854 410.9 655.787 432 667.85C439.396 672.078 451.842 679.602 459.351 671.467C462.117 668.471 463.104 663.829 464.116 660C466.74 650.067 473.653 634.012 469.856 624C465.374 612.182 454.387 603.085 449.452 591C440.531 569.154 439.233 545.246 442.289 522C448.519 474.62 474.93 431.146 514 403.721C576.965 359.521 683.409 357.737 736.711 419C784.678 474.132 774.232 563.355 747.421 626C734.697 655.732 713.914 685.024 683 697.547C642.522 713.944 595.451 690.249 596.004 644C596.154 631.456 601.123 617.943 604.72 606C614.908 572.172 631.377 534.988 628.911 499C626.73 467.184 602.5 447.62 571 452.299C537.552 457.268 517.995 492.437 513.275 523C510.738 539.425 510.858 557.735 514.424 574C516.415 583.079 523.536 595.955 522.072 605C513.153 660.088 495.678 714.508 483.576 769C478.449 792.085 471.395 815.174 470.997 839C470.582 863.808 469.675 888.243 472.715 913C473.463 919.085 472.443 933.118 477.514 937.377C480.822 940.156 484.445 936.409 486.536 933.981C492.155 927.454 497.091 920.085 501.975 913C521.977 883.978 540.018 852.281 549.116 818C557.673 785.755 564.955 753.11 574 721z"/>
<path style="fill:#fba09c; stroke:none;" d="M652 312L652 313L659 313L652 312z"/>
<path style="fill:#ce5c5e; stroke:none;" d="M659 312L659 313L663 313L659 312M584.667 313.333L585.333 313.667L584.667 313.333z"/>
<path style="fill:#fba09c; stroke:none;" d="M586 313L586 314L592 314L586 313M662 313L662 314L667 314L662 313z"/>
<path style="fill:#ce5c5e; stroke:none;" d="M667 313L667 314L670 314L667 313M576 314L576 315L580 315L576 314z"/>
<path style="fill:#fba09c; stroke:none;" d="M580 314L580 315L583 315L580 314M670 314L670 315L673 315L670 314z"/>
<path style="fill:#ce5c5e; stroke:none;" d="M673 314L673 315L676 315L673 314M570 315L570 316L573 316L570 315z"/>
<path style="fill:#fba09c; stroke:none;" d="M573 315L573 316L576 316L573 315M676 315L676 316L679 316L676 315z"/>
<path style="fill:#ce5c5e; stroke:none;" d="M679.667 315.333L680.333 315.667L679.667 315.333M565 316L565 317L568 317L565 316z"/>
<path style="fill:#fba09c; stroke:none;" d="M568.667 316.333L569.333 316.667L568.667 316.333M681 316L681 317L684 317L681 316z"/>
<path style="fill:#ce5c5e; stroke:none;" d="M684 316L684 317L687 317L684 316M561.667 317.333L562.333 317.667L561.667 317.333z"/>
<path style="fill:#fba09c; stroke:none;" d="M563 317L563 318L566 318L563 317M685 317L685 318L688 318L685 317z"/>
<path style="fill:#ce5c5e; stroke:none;" d="M688 317L688 318L691 318L688 317M556.667 318.333L557.333 318.667L556.667 318.333z"/>
<path style="fill:#fba09c; stroke:none;" d="M558.667 318.333L559.333 318.667L558.667 318.333M690.667 318.333L691.333 318.667L690.667 318.333z"/>
<path style="fill:#ce5c5e; stroke:none;" d="M692 318L692 319L695 319L692 318M552.667 319.333L553.333 319.667L552.667 319.333z"/>
<path style="fill:#fba09c; stroke:none;" d="M554 319L554 320L557 320L554 319M694.667 319.333L695.333 319.667L694.667 319.333z"/>
<path style="fill:#ce5c5e; stroke:none;" d="M696.667 319.333L697.333 319.667L696.667 319.333M548.667 320.333L549.333 320.667L548.667 320.333z"/>
<path style="fill:#fba09c; stroke:none;" d="M550.667 320.333L551.333 320.667L550.667 320.333M698.667 320.333L699.333 320.667L698.667 320.333z"/>
<path style="fill:#ce5c5e; stroke:none;" d="M700.667 320.333L701.333 320.667L700.667 320.333M545 321L546 322L545 321z"/>
<path style="fill:#fba09c; stroke:none;" d="M546 321L546 322L549 322L546 321M701 321L701 322L704 322L701 321z"/>
<path style="fill:#ce5c5e; stroke:none;" d="M704 321L705 322L704 321M541.667 322.333L542.333 322.667L541.667 322.333z"/>
<path style="fill:#fba09c; stroke:none;" d="M543 322L544 323L543 322M705.667 322.333L706.333 322.667L705.667 322.333z"/>
<path style="fill:#ce5c5e; stroke:none;" d="M707 322L708 323L707 322M538.667 323.333L539.333 323.667L538.667 323.333z"/>
<path style="fill:#fba09c; stroke:none;" d="M540.667 323.333L541.333 323.667L540.667 323.333M708.667 323.333L709.333 323.667L708.667 323.333z"/>
<path style="fill:#ce5c5e; stroke:none;" d="M710.667 323.333L711.333 323.667L710.667 323.333M534.667 324.333L535.333 324.667L534.667 324.333z"/>
<path style="fill:#fba09c; stroke:none;" d="M536.667 324.333L537.333 324.667L536.667 324.333M711.667 324.333L712.333 324.667L711.667 324.333z"/>
<path style="fill:#ce5c5e; stroke:none;" d="M713 324L714 325L713 324M532 325L533 326L532 325z"/>
<path style="fill:#fba09c; stroke:none;" d="M533.667 325.333L534.333 325.667L533.667 325.333M714.667 325.333L715.333 325.667L714.667 325.333z"/>
<path style="fill:#ce5c5e; stroke:none;" d="M716 325L717 326L716 325M528.667 326.333L529.333 326.667L528.667 326.333z"/>
<path style="fill:#fba09c; stroke:none;" d="M530.667 326.333L531.333 326.667L530.667 326.333M717 326L718 327L717 326z"/>
<path style="fill:#ce5c5e; stroke:none;" d="M718.667 326.333L719.333 326.667L718.667 326.333M526 327L527 328L526 327z"/>
<path style="fill:#fba09c; stroke:none;" d="M527.667 327.333L528.333 327.667L527.667 327.333M719.667 327.333L720.333 327.667L719.667 327.333z"/>
<path style="fill:#ce5c5e; stroke:none;" d="M721 327L722 328L721 327M523 328L524 329L523 328z"/>
<path style="fill:#fba09c; stroke:none;" d="M524.667 328.333L525.333 328.667L524.667 328.333M722 328L722 329L726 330L726 329L722 328z"/>
<path style="fill:#ce5c5e; stroke:none;" d="M724 328L725 329L724 328M930 328L935 335L936 335L936 328L930 328M520.667 329.333L521.333 329.667L520.667 329.333z"/>
<path style="fill:#fba09c; stroke:none;" d="M522.667 329.333L523.333 329.667L522.667 329.333z"/>
<path style="fill:#ce5c5e; stroke:none;" d="M726 329L727 330L726 329M518 330L519 331L518 330z"/>
<path style="fill:#fba09c; stroke:none;" d="M519.667 330.333L520.333 330.667L519.667 330.333M727 330L728 331L727 330z"/>
<path style="fill:#ce5c5e; stroke:none;" d="M728.667 330.333L729.333 330.667L728.667 330.333M515 331L516 332L515 331z"/>
<path style="fill:#fba09c; stroke:none;" d="M516.667 331.333L517.333 331.667L516.667 331.333M729.667 331.333L730.333 331.667L729.667 331.333z"/>
<path style="fill:#ce5c5e; stroke:none;" d="M731 331L732 332L731 331M513 332L514 333L513 332z"/>
<path style="fill:#fba09c; stroke:none;" d="M514.667 332.333L515.333 332.667L514.667 332.333M732 332L733 333L732 332z"/>
<path style="fill:#ce5c5e; stroke:none;" d="M733 332L734 333L733 332M511 333L512 334L511 333z"/>
<path style="fill:#fba09c; stroke:none;" d="M512 333L513 334L512 333M734 333L735 334L734 333z"/>
<path style="fill:#ce5c5e; stroke:none;" d="M735 333L736 334L735 333M508 334L509 335L508 334z"/>
<path style="fill:#fba09c; stroke:none;" d="M509.667 334.333L510.333 334.667L509.667 334.333M736 334L737 335L736 334z"/>
<path style="fill:#ce5c5e; stroke:none;" d="M737 334L737 335L740 336L737 334M506 335L507 336L506 335z"/>
<path style="fill:#fba09c; stroke:none;" d="M507.667 335.333L508.333 335.667L507.667 335.333M738 335L739 336L738 335z"/>
<path style="fill:#ce5c5e; stroke:none;" d="M256 336L256 342L261 336L256 336M504 336L505 337L504 336z"/>
<path style="fill:#fba09c; stroke:none;" d="M505 336L506 337L505 336M740.667 336.333L741.333 336.667L740.667 336.333z"/>
<path style="fill:#ce5c5e; stroke:none;" d="M937 336L959 368L960 368L960 352L952 352L952 344L944 344L944 336L937 336M502 337L503 338L502 337z"/>
<path style="fill:#fba09c; stroke:none;" d="M503 337L504 338L503 337M742 337L743 338L742 337z"/>
<path style="fill:#ce5c5e; stroke:none;" d="M743 337L744 338L743 337M500 338L501 339L500 338z"/>
<path style="fill:#fba09c; stroke:none;" d="M501 338L502 339L501 338M744 338L745 339L744 338z"/>
<path style="fill:#ce5c5e; stroke:none;" d="M745 338L746 339L745 338M498 339L499 340L498 339z"/>
<path style="fill:#fba09c; stroke:none;" d="M499 339L500 340L499 339M746 339L747 340L746 339z"/>
<path style="fill:#ce5c5e; stroke:none;" d="M747 339L748 340L747 339M496 340L497 341L496 340z"/>
<path style="fill:#fba09c; stroke:none;" d="M497 340L498 341L497 340M748 340L749 341L748 340z"/>
<path style="fill:#ce5c5e; stroke:none;" d="M749 340L750 341L749 340M494 341L495 342L494 341z"/>
<path style="fill:#fba09c; stroke:none;" d="M495 341L496 342L495 341M750 341L753 343L753 342L750 341z"/>
<path style="fill:#ce5c5e; stroke:none;" d="M751 341L752 342L751 341M492 342L493 343L492 342z"/>
<path style="fill:#fba09c; stroke:none;" d="M493 342L494 343L493 342z"/>
<path style="fill:#ce5c5e; stroke:none;" d="M490 343L491 344L490 343z"/>
<path style="fill:#fba09c; stroke:none;" d="M491 343L492 344L491 343M753 343L754 344L753 343z"/>
<path style="fill:#ce5c5e; stroke:none;" d="M754 343L755 344L754 343M248 344L248 352L254 344L248 344M488 344L489 345L488 344z"/>
<path style="fill:#fba09c; stroke:none;" d="M489 344L490 345L489 344M755 344L756 345L755 344z"/>
<path style="fill:#ce5c5e; stroke:none;" d="M756 344L757 345L756 344z"/>
<path style="fill:#fba09c; stroke:none;" d="M487.667 345.333L488.333 345.667L487.667 345.333M757 345L758 346L757 345z"/>
<path style="fill:#ce5c5e; stroke:none;" d="M485 346L486 347L485 346z"/>
<path style="fill:#fba09c; stroke:none;" d="M486 346L487 347L486 346M758 346L759 347L758 346z"/>
<path style="fill:#ce5c5e; stroke:none;" d="M759 346L760 347L759 346M483 347L484 348L483 347z"/>
<path style="fill:#fba09c; stroke:none;" d="M484 347L485 348L484 347M760 347L762 349L760 347z"/>
<path style="fill:#ce5c5e; stroke:none;" d="M761 347L762 348L761 347M481 348L480 350L481 348z"/>
<path style="fill:#fba09c; stroke:none;" d="M482 348L483 349L482 348z"/>
<path style="fill:#ce5c5e; stroke:none;" d="M762 348L763 349L762 348z"/>
<path style="fill:#fba09c; stroke:none;" d="M481 349L482 350L481 349M763 349L765 351L763 349z"/>
<path style="fill:#ce5c5e; stroke:none;" d="M764 349L765 350L764 349M478 350L479 351L478 350z"/>
<path style="fill:#fba09c; stroke:none;" d="M479 350L480 351L479 350z"/>
<path style="fill:#ce5c5e; stroke:none;" d="M765 350L766 351L765 350z"/>
<path style="fill:#fba09c; stroke:none;" d="M477.667 351.333L478.333 351.667L477.667 351.333M766 351L767 352L766 351z"/>
<path style="fill:#ce5c5e; stroke:none;" d="M240 352L240 360L232 360L232 376L234 376L248 352L240 352M475 352L476 353L475 352z"/>
<path style="fill:#fba09c; stroke:none;" d="M476 352L477 353L476 352z"/>
<path style="fill:#ce5c5e; stroke:none;" d="M768 352L769 353L768 352z"/>
<path style="fill:#fba09c; stroke:none;" d="M474 353L475 354L474 353M769 353L771 355L769 353z"/>
<path style="fill:#ce5c5e; stroke:none;" d="M770 353L771 354L770 353M472 354L473 355L472 354z"/>
<path style="fill:#fba09c; stroke:none;" d="M473 354L474 355L473 354z"/>
<path style="fill:#ce5c5e; stroke:none;" d="M771 354L772 355L771 354M470 355L469 357L470 355z"/>
<path style="fill:#fba09c; stroke:none;" d="M471 355L472 356L471 355z"/>
<path style="fill:#ce5c5e; stroke:none;" d="M772 355L773 356L772 355z"/>
<path style="fill:#fba09c; stroke:none;" d="M470 356L471 357L470 356M773 356L775 358L773 356z"/>
<path style="fill:#ce5c5e; stroke:none;" d="M774 356L775 357L774 356z"/>
<path style="fill:#fba09c; stroke:none;" d="M468 357L469 358L468 357z"/>
<path style="fill:#ce5c5e; stroke:none;" d="M775 357L776 358L775 357M466 358L467 359L466 358z"/>
<path style="fill:#fba09c; stroke:none;" d="M467 358L468 359L467 358M776 358L777 359L776 358M465.667 359.333L466.333 359.667L465.667 359.333M777 359L780 362L777 359z"/>
<path style="fill:#ce5c5e; stroke:none;" d="M778 359L779 360L778 359M463 360L462 362L463 360z"/>
<path style="fill:#fba09c; stroke:none;" d="M464 360L465 361L464 360z"/>
<path style="fill:#ce5c5e; stroke:none;" d="M779 360L780 361L779 360z"/>
<path style="fill:#fba09c; stroke:none;" d="M463 361L464 362L463 361z"/>
<path style="fill:#ce5c5e; stroke:none;" d="M780 361L781 362L780 361z"/>
<path style="fill:#fba09c; stroke:none;" d="M461 362L462 363L461 362M781 362L782 363L781 362M460 363L461 364L460 363M782 363L785 366L782 363z"/>
<path style="fill:#ce5c5e; stroke:none;" d="M783 363L784 364L783 363M458 364L459 365L458 364z"/>
<path style="fill:#fba09c; stroke:none;" d="M459 364L460 365L459 364z"/>
<path style="fill:#ce5c5e; stroke:none;" d="M784 364L785 365L784 364z"/>
<path style="fill:#fba09c; stroke:none;" d="M457 365L458 366L457 365z"/>
<path style="fill:#ce5c5e; stroke:none;" d="M785 365L786 366L785 365z"/>
<path style="fill:#fba09c; stroke:none;" d="M456 366L457 367L456 366z"/>
<path style="fill:#ce5c5e; stroke:none;" d="M786 366L787 367L786 366M454 367L453 369L454 367z"/>
<path style="fill:#fba09c; stroke:none;" d="M455 367L456 368L455 367M787 367L788 368L787 367M454 368L455 369L454 368M788 368L789 369L788 368z"/>
<path style="fill:#ce5c5e; stroke:none;" d="M960 368L966 380L968 380L968 368L960 368M452 369L453 370L452 369z"/>
<path style="fill:#fba09c; stroke:none;" d="M789 369L790 370L789 369M451 370L452 371L451 370M790 370L795 375L790 370z"/>
<path style="fill:#ce5c5e; stroke:none;" d="M791 370L792 371L791 370M449 371L447 374L449 371z"/>
<path style="fill:#fba09c; stroke:none;" d="M450 371L451 372L450 371z"/>
<path style="fill:#ce5c5e; stroke:none;" d="M792 371L793 372L792 371z"/>
<path style="fill:#fba09c; stroke:none;" d="M449 372L450 373L449 372M608 372L608 373L630 373L608 372z"/>
<path style="fill:#ce5c5e; stroke:none;" d="M793 372L794 373L793 372z"/>
<path style="fill:#fba09c; stroke:none;" d="M448 373L449 374L448 373M596 373L596 374L603 374L596 373z"/>
<path style="fill:#ce5c5e; stroke:none;" d="M603 373L603 374L612 374L603 373M625 373L625 374L628 374L625 373M629 373L629 374L635 374L629 373z"/>
<path style="fill:#fba09c; stroke:none;" d="M635 373L635 374L642 374L635 373z"/>
<path style="fill:#ce5c5e; stroke:none;" d="M794 373L795 374L794 373M446 374L447 375L446 374z"/>
<path style="fill:#fba09c; stroke:none;" d="M588 374L588 375L593 375L588 374z"/>
<path style="fill:#ce5c5e; stroke:none;" d="M593 374L593 375L597 375L593 374M641 374L641 375L645 375L641 374z"/>
<path style="fill:#fba09c; stroke:none;" d="M645 374L645 375L650 375L645 374z"/>
<path style="fill:#ce5c5e; stroke:none;" d="M795 374L796 375L795 374M445 375L446 376L445 375z"/>
<path style="fill:#fba09c; stroke:none;" d="M583 375L583 376L586 376L583 375z"/>
<path style="fill:#ce5c5e; stroke:none;" d="M586 375L586 376L590 376L586 375M649 375L649 376L652 376L649 375z"/>
<path style="fill:#fba09c; stroke:none;" d="M652 375L652 376L656 376L652 375z"/>
<path style="fill:#ce5c5e; stroke:none;" d="M796 375L801 380L796 375M224 376L224 388L232 376L224 376z"/>
<path style="fill:#fba09c; stroke:none;" d="M444 376L445 377L444 376M573 377L573 378L580 377L573 377z"/>
<path style="fill:#ce5c5e; stroke:none;" d="M580 376L580 377L583 377L580 376M656.667 376.333L657.333 376.667L656.667 376.333z"/>
<path style="fill:#fba09c; stroke:none;" d="M658 376L658 377L661 377L658 376M796 376L797 377L796 376M443 377L444 378L443 377z"/>
<path style="fill:#ce5c5e; stroke:none;" d="M576.667 377.333L577.333 377.667L576.667 377.333M660 377L660 378L663 378L660 377z"/>
<path style="fill:#fba09c; stroke:none;" d="M663 377L663 378L666 378L663 377M797 377L798 378L797 377M442 378L443 379L442 378M569.667 378.333L570.333 378.667L569.667 378.333z"/>
<path style="fill:#ce5c5e; stroke:none;" d="M571.667 378.333L572.333 378.667L571.667 378.333M665.667 378.333L666.333 378.667L665.667 378.333z"/>
<path style="fill:#fba09c; stroke:none;" d="M667.667 378.333L668.333 378.667L667.667 378.333M798 378L799 379L798 378M441 379L442 380L441 379M565.667 379.333L566.333 379.667L565.667 379.333z"/>
<path style="fill:#ce5c5e; stroke:none;" d="M567.667 379.333L568.333 379.667L567.667 379.333M669.667 379.333L670.333 379.667L669.667 379.333z"/>
<path style="fill:#fba09c; stroke:none;" d="M671.667 379.333L672.333 379.667L671.667 379.333M799 379L800 380L799 379M440 380L441 381L440 380M561 380L561 381L564 381L561 380z"/>
<path style="fill:#ce5c5e; stroke:none;" d="M564 380L565 381L564 380M673 380L674 381L673 380z"/>
<path style="fill:#fba09c; stroke:none;" d="M674.667 380.333L675.333 380.667L674.667 380.333z"/>
<path style="fill:#ce5c5e; stroke:none;" d="M801 380L804 383L801 380z"/>
<path style="fill:#fba09c; stroke:none;" d="M439 381L440 382L439 381M559 381L560 382L559 381z"/>
<path style="fill:#ce5c5e; stroke:none;" d="M560.667 381.333L561.333 381.667L560.667 381.333M676 381L677 382L676 381z"/>
<path style="fill:#fba09c; stroke:none;" d="M677 381L677 382L680 382L677 381M801 381L802 382L801 381M438 382L439 383L438 382M556 382L557 383L556 382z"/>
<path style="fill:#ce5c5e; stroke:none;" d="M557.667 382.333L558.333 382.667L557.667 382.333M679.667 382.333L680.333 382.667L679.667 382.333z"/>
<path style="fill:#fba09c; stroke:none;" d="M681 382L682 383L681 382M802 382L803 383L802 382M437 383L438 384L437 383M553 383L554 384L553 383z"/>
<path style="fill:#ce5c5e; stroke:none;" d="M554.667 383.333L555.333 383.667L554.667 383.333M682 383L683 384L682 383z"/>
<path style="fill:#fba09c; stroke:none;" d="M683.667 383.333L684.333 383.667L683.667 383.333M803 383L804 384L803 383M436 384L437 385L436 384M550.667 384.333L551.333 384.667L550.667 384.333z"/>
<path style="fill:#ce5c5e; stroke:none;" d="M552 384L553 385L552 384M685 384L686 385L685 384z"/>
<path style="fill:#fba09c; stroke:none;" d="M686 384L686 385L690 386L690 385L686 384M804 384L805 385L804 384z"/>
<path style="fill:#ce5c5e; stroke:none;" d="M969 384L969 385L984 408L984 392L976 392L976 384L969 384z"/>
<path style="fill:#fba09c; stroke:none;" d="M435 385L436 386L435 385M548 385L549 386L548 385z"/>
<path style="fill:#ce5c5e; stroke:none;" d="M549 385L550 386L549 385M687 385L688 386L687 385z"/>
<path style="fill:#fba09c; stroke:none;" d="M805 385L806 386L805 385M434 386L435 387L434 386M545 386L546 387L545 386z"/>
<path style="fill:#ce5c5e; stroke:none;" d="M546.667 386.333L547.333 386.667L546.667 386.333M690 386L691 387L690 386z"/>
<path style="fill:#fba09c; stroke:none;" d="M691 386L692 387L691 386M806 386L807 387L806 386M433 387L434 388L433 387M543 387L544 388L543 387z"/>
<path style="fill:#ce5c5e; stroke:none;" d="M544 387L545 388L544 387M692 387L693 388L692 387z"/>
<path style="fill:#fba09c; stroke:none;" d="M693 387L694 388L693 387M807 387L808 388L807 387M432 388L433 389L432 388M540.667 388.333L541.333 388.667L540.667 388.333z"/>
<path style="fill:#ce5c5e; stroke:none;" d="M542 388L543 389L542 388M694 388L695 389L694 388z"/>
<path style="fill:#fba09c; stroke:none;" d="M695 388L696 389L695 388z"/>
<path style="fill:#ce5c5e; stroke:none;" d="M808 388L809 389L808 388z"/>
<path style="fill:#fba09c; stroke:none;" d="M431 389L432 390L431 389M538.667 389.333L539.333 389.667L538.667 389.333z"/>
<path style="fill:#ce5c5e; stroke:none;" d="M696 389L697 390L696 389z"/>
<path style="fill:#fba09c; stroke:none;" d="M697.667 389.333L698.333 389.667L697.667 389.333z"/>
<path style="fill:#ce5c5e; stroke:none;" d="M809 389L810 390L809 389z"/>
<path style="fill:#fba09c; stroke:none;" d="M430 390L431 391L430 390M536 390L537 391L536 390z"/>
<path style="fill:#ce5c5e; stroke:none;" d="M537 390L538 391L537 390z"/>
<path style="fill:#fba09c; stroke:none;" d="M699 390L699 391L702 392L699 390z"/>
<path style="fill:#ce5c5e; stroke:none;" d="M810 390L811 391L810 390z"/>
<path style="fill:#fba09c; stroke:none;" d="M429 391L430 392L429 391M534 391L535 392L534 391z"/>
<path style="fill:#ce5c5e; stroke:none;" d="M535 391L536 392L535 391M700 391L701 392L700 391z"/>
<path style="fill:#fba09c; stroke:none;" d="M810 391L811 392L810 391z"/>
<path style="fill:#ce5c5e; stroke:none;" d="M216 392L216 403L217 403L222 392L216 392z"/>
<path style="fill:#fba09c; stroke:none;" d="M428 392L429 393L428 392M532 392L533 393L532 392z"/>
<path style="fill:#ce5c5e; stroke:none;" d="M533 392L534 393L533 392M702 392L703 393L702 392z"/>
<path style="fill:#fba09c; stroke:none;" d="M703 392L704 393L703 392M811 392L812 393L811 392z"/>
<path style="fill:#ce5c5e; stroke:none;" d="M427 393L428 394L427 393z"/>
<path style="fill:#fba09c; stroke:none;" d="M530 393L531 394L530 393z"/>
<path style="fill:#ce5c5e; stroke:none;" d="M531 393L532 394L531 393M704 393L705 394L704 393z"/>
<path style="fill:#fba09c; stroke:none;" d="M705 393L706 394L705 393M812 393L813 394L812 393z"/>
<path style="fill:#ce5c5e; stroke:none;" d="M426 394L427 395L426 394z"/>
<path style="fill:#fba09c; stroke:none;" d="M528.667 394.333L529.333 394.667L528.667 394.333z"/>
<path style="fill:#ce5c5e; stroke:none;" d="M706 394L708 396L706 394z"/>
<path style="fill:#fba09c; stroke:none;" d="M707 394L708 395L707 394z"/>
<path style="fill:#ce5c5e; stroke:none;" d="M813 394L814 395L813 394M425 395L424 397L425 395z"/>
<path style="fill:#fba09c; stroke:none;" d="M525 397L528 396L525 397M708 395L709 396L708 395z"/>
<path style="fill:#ce5c5e; stroke:none;" d="M814 395L816 397L814 395z"/>
<path style="fill:#fba09c; stroke:none;" d="M425 396L426 397L425 396z"/>
<path style="fill:#ce5c5e; stroke:none;" d="M526 396L527 397L526 396M709 396L710 397L709 396z"/>
<path style="fill:#fba09c; stroke:none;" d="M710 396L711 397L710 396M814 396L815 397L814 396M424 397L425 398L424 397M523 397L524 398L523 397z"/>
<path style="fill:#ce5c5e; stroke:none;" d="M524 397L525 398L524 397M711 397L712 398L711 397z"/>
<path style="fill:#fba09c; stroke:none;" d="M815 397L816 398L815 397M423 398L424 399L423 398M521 398L520 400L521 398z"/>
<path style="fill:#ce5c5e; stroke:none;" d="M522 398L523 399L522 398M712 398L713 399L712 398z"/>
<path style="fill:#fba09c; stroke:none;" d="M713 398L714 399L713 398z"/>
<path style="fill:#ce5c5e; stroke:none;" d="M816 398L819 401L816 398z"/>
<path style="fill:#fba09c; stroke:none;" d="M422 399L423 400L422 399z"/>
<path style="fill:#ce5c5e; stroke:none;" d="M521 399L522 400L521 399z"/>
<path style="fill:#fba09c; stroke:none;" d="M714 399L714 400L717 401L714 399M816 399L817 400L816 399z"/>
<path style="fill:#ce5c5e; stroke:none;" d="M421 400L422 401L421 400z"/>
<path style="fill:#fba09c; stroke:none;" d="M518 400L517 402L518 400z"/>
<path style="fill:#ce5c5e; stroke:none;" d="M519 400L520 401L519 400M715 400L716 401L715 400z"/>
<path style="fill:#fba09c; stroke:none;" d="M817 400L818 401L817 400z"/>
<path style="fill:#ce5c5e; stroke:none;" d="M420 401L421 402L420 401M518 401L519 402L518 401z"/>
<path style="fill:#fba09c; stroke:none;" d="M717 401L718 402L717 401M818 401L819 402L818 401M420 402L421 403L420 402M515 402L514 404L515 402z"/>
<path style="fill:#ce5c5e; stroke:none;" d="M516 402L517 403L516 402M718 402L719 403L718 402z"/>
<path style="fill:#fba09c; stroke:none;" d="M819 402L820 403L819 402M419 403L420 404L419 403z"/>
<path style="fill:#ce5c5e; stroke:none;" d="M515 403L516 404L515 403M719 403L721 405L719 403z"/>
<path style="fill:#fba09c; stroke:none;" d="M720 403L721 404L720 403z"/>
<path style="fill:#ce5c5e; stroke:none;" d="M820 403L821 404L820 403z"/>
<path style="fill:#fba09c; stroke:none;" d="M418 404L419 405L418 404M512 404L511 406L512 404z"/>
<path style="fill:#ce5c5e; stroke:none;" d="M513 404L514 405L513 404z"/>
<path style="fill:#fba09c; stroke:none;" d="M721 404L722 405L721 404M820 404L821 405L820 404z"/>
<path style="fill:#ce5c5e; stroke:none;" d="M417 405L418 406L417 405M512 405L513 406L512 405z"/>
<path style="fill:#fba09c; stroke:none;" d="M722 405L723 406L722 405M821 405L822 406L821 405z"/>
<path style="fill:#ce5c5e; stroke:none;" d="M416 406L417 407L416 406M510 406L511 407L510 406M723 406L724 407L723 406M822 406L824 408L822 406z"/>
<path style="fill:#fba09c; stroke:none;" d="M416 407L417 408L416 407M508 407L509 408L508 407z"/>
<path style="fill:#ce5c5e; stroke:none;" d="M509 407L510 408L509 407M724 407L728 411L724 407z"/>
<path style="fill:#fba09c; stroke:none;" d="M725 407L726 408L725 407M822 407L823 408L822 407z"/>
<path style="fill:#ce5c5e; stroke:none;" d="M208 408L208 419L209 419L214 408L208 408z"/>
<path style="fill:#fba09c; stroke:none;" d="M415 408L416 409L415 408M507 408L508 409L507 408M726 408L727 409L726 408M823 408L824 409L823 408z"/>
<path style="fill:#ce5c5e; stroke:none;" d="M984 408L990 424L992 424L992 408L984 408z"/>
<path style="fill:#fba09c; stroke:none;" d="M414 409L415 410L414 409M506 409L507 410L506 409M727 409L728 410L727 409z"/>
<path style="fill:#ce5c5e; stroke:none;" d="M824 409L826 411L824 409M413 410L412 412L413 410z"/>
<path style="fill:#fba09c; stroke:none;" d="M504 410L503 412L504 410z"/>
<path style="fill:#ce5c5e; stroke:none;" d="M505 410L506 411L505 410z"/>
<path style="fill:#fba09c; stroke:none;" d="M728 410L729 411L728 410M824 410L825 411L824 410M413 411L414 412L413 411z"/>
<path style="fill:#ce5c5e; stroke:none;" d="M504 411L505 412L504 411z"/>
<path style="fill:#fba09c; stroke:none;" d="M729 411L730 412L729 411M825 411L826 412L825 411M412 412L413 413L412 412M502 412L503 413L502 412M730 412L731 413L730 412z"/>
<path style="fill:#ce5c5e; stroke:none;" d="M826 412L827 413L826 412M411 413L412 414L411 413z"/>
<path style="fill:#fba09c; stroke:none;" d="M501 413L502 414L501 413M731 413L732 414L731 413M826 413L827 414L826 413z"/>
<path style="fill:#ce5c5e; stroke:none;" d="M410 414L411 415L410 414M500 414L501 415L500 414z"/>
<path style="fill:#fba09c; stroke:none;" d="M732 414L733 415L732 414M827 414L828 415L827 414M410 415L411 416L410 415M498 415L494 420L498 415z"/>
<path style="fill:#ce5c5e; stroke:none;" d="M499 415L500 416L499 415z"/>
<path style="fill:#fba09c; stroke:none;" d="M733 415L734 416L733 415z"/>
<path style="fill:#ce5c5e; stroke:none;" d="M828 415L829 416L828 415M409 416L408 418L409 416M498 416L499 417L498 416z"/>
<path style="fill:#fba09c; stroke:none;" d="M734 416L738 420L734 416M828 416L829 417L828 416M409 417L410 418L409 417z"/>
<path style="fill:#ce5c5e; stroke:none;" d="M497 417L498 418L497 417M734 417L735 418L734 417M829 417L830 418L829 417z"/>
<path style="fill:#fba09c; stroke:none;" d="M408 418L409 419L408 418z"/>
<path style="fill:#ce5c5e; stroke:none;" d="M496 418L497 419L496 418M735 418L736 419L735 418z"/>
<path style="fill:#fba09c; stroke:none;" d="M829 418L830 419L829 418z"/>
<path style="fill:#ce5c5e; stroke:none;" d="M407 419L408 420L407 419M495 419L496 420L495 419M736 419L737 420L736 419z"/>
<path style="fill:#fba09c; stroke:none;" d="M830 419L832 422L830 419z"/>
<path style="fill:#ce5c5e; stroke:none;" d="M406 420L407 421L406 420z"/>
<path style="fill:#fba09c; stroke:none;" d="M493 420L492 422L493 420z"/>
<path style="fill:#ce5c5e; stroke:none;" d="M737 420L738 421L737 420M831 420L832 421L831 420z"/>
<path style="fill:#fba09c; stroke:none;" d="M406 421L407 422L406 421z"/>
<path style="fill:#ce5c5e; stroke:none;" d="M493 421L494 422L493 421M738 421L739 422L738 421z"/>
<path style="fill:#fba09c; stroke:none;" d="M405 422L404 425L405 422M491 422L492 423L491 422M739 422L740 423L739 422z"/>
<path style="fill:#ce5c5e; stroke:none;" d="M832 422L833 423L832 422M404 423L405 424L404 423z"/>
<path style="fill:#fba09c; stroke:none;" d="M490 423L491 424L490 423M740 423L741 424L740 423M832 423L833 424L832 423z"/>
<path style="fill:#ce5c5e; stroke:none;" d="M200 424L200 437L201 437L206 424L200 424z"/>
<path style="fill:#fba09c; stroke:none;" d="M489 424L490 425L489 424M741 424L742 425L741 424z"/>
<path style="fill:#ce5c5e; stroke:none;" d="M833 424L834 425L833 424M992 424L998 442L1000 442L1000 424L992 424M403 425L402 427L403 425z"/>
<path style="fill:#fba09c; stroke:none;" d="M488 425L489 426L488 425z"/>
<path style="fill:#ce5c5e; stroke:none;" d="M741 425L742 426L741 425z"/>
<path style="fill:#fba09c; stroke:none;" d="M833 425L834 426L833 425M403 426L404 427L403 426M487 426L488 427L487 426z"/>
<path style="fill:#ce5c5e; stroke:none;" d="M742 426L743 427L742 426M834 426L835 427L834 426z"/>
<path style="fill:#fba09c; stroke:none;" d="M402 427L403 428L402 427M486 427L484 430L486 427M743 427L745 429L743 427M834 427L835 428L834 427z"/>
<path style="fill:#ce5c5e; stroke:none;" d="M401 428L402 429L401 428M486 428L487 429L486 428M743 428L744 429L743 428M835 428L836 429L835 428z"/>
<path style="fill:#fba09c; stroke:none;" d="M401 429L402 430L401 429z"/>
<path style="fill:#ce5c5e; stroke:none;" d="M485 429L486 430L485 429M744 429L745 430L744 429z"/>
<path style="fill:#fba09c; stroke:none;" d="M835 429L836 430L835 429z"/>
<path style="fill:#ce5c5e; stroke:none;" d="M400 430L401 431L400 430M484 430L485 431L484 430z"/>
<path style="fill:#fba09c; stroke:none;" d="M745 430L746 431L745 430z"/>
<path style="fill:#ce5c5e; stroke:none;" d="M836 430L838 432L836 430z"/>
<path style="fill:#fba09c; stroke:none;" d="M400 431L401 432L400 431z"/>
<path style="fill:#ce5c5e; stroke:none;" d="M483 431L484 432L483 431z"/>
<path style="fill:#fba09c; stroke:none;" d="M746 431L747 432L746 431M836 431L837 432L836 431M399 432L398 435L399 432z"/>
<path style="fill:#ce5c5e; stroke:none;" d="M482 432L483 433L482 432M746 432L747 433L746 432z"/>
<path style="fill:#fba09c; stroke:none;" d="M837.333 432.667L837.667 433.333L837.333 432.667z"/>
<path style="fill:#ce5c5e; stroke:none;" d="M398 433L399 434L398 433z"/>
<path style="fill:#fba09c; stroke:none;" d="M481 433L482 434L481 433M747 433L748 434L747 433z"/>
<path style="fill:#ce5c5e; stroke:none;" d="M838.333 433.667L838.667 434.333L838.333 433.667z"/>
<path style="fill:#fba09c; stroke:none;" d="M480 434L481 435L480 434M748 434L749 435L748 434z"/>
<path style="fill:#ce5c5e; stroke:none;" d="M397 435L398 436L397 435z"/>
<path style="fill:#fba09c; stroke:none;" d="M479 435L478 437L479 435z"/>
<path style="fill:#ce5c5e; stroke:none;" d="M748 435L749 436L748 435z"/>
<path style="fill:#fba09c; stroke:none;" d="M838 435L839 436L838 435M397 436L398 437L397 436z"/>
<path style="fill:#ce5c5e; stroke:none;" d="M479 436L480 437L479 436z"/>
<path style="fill:#fba09c; stroke:none;" d="M749 436L751 440L752 440L749 436z"/>
<path style="fill:#ce5c5e; stroke:none;" d="M839 436L840 437L839 436M396 437L397 438L396 437M478 437L479 438L478 437M749 437L750 438L749 437z"/>
<path style="fill:#fba09c; stroke:none;" d="M839 437L840 438L839 437M396 438L397 439L396 438M477 438L478 439L477 438z"/>
<path style="fill:#ce5c5e; stroke:none;" d="M840 438L841 439L840 438M395 439L394 441L395 439z"/>
<path style="fill:#fba09c; stroke:none;" d="M476 439L477 440L476 439z"/>
<path style="fill:#ce5c5e; stroke:none;" d="M750 439L751 440L750 439z"/>
<path style="fill:#fba09c; stroke:none;" d="M840 439L841 440L840 439z"/>
<path style="fill:#ce5c5e; stroke:none;" d="M192 440L192 456L193 456L200 440L192 440z"/>
<path style="fill:#fba09c; stroke:none;" d="M395 440L396 441L395 440M475 440L476 441L475 440z"/>
<path style="fill:#ce5c5e; stroke:none;" d="M751 440L752 441L751 440M841 440L842 441L841 440z"/>
<path style="fill:#fba09c; stroke:none;" d="M394.333 441.667L394.667 442.333L394.333 441.667z"/>
<path style="fill:#ce5c5e; stroke:none;" d="M475 441L476 442L475 441z"/>
<path style="fill:#fba09c; stroke:none;" d="M752 441L753 442L752 441M841.333 441.667L841.667 442.333L841.333 441.667M474 442L475 443L474 442z"/>
<path style="fill:#ce5c5e; stroke:none;" d="M752 442L753 443L752 442z"/>
<path style="fill:#fba09c; stroke:none;" d="M393.333 443.667L393.667 444.333L393.333 443.667M473 443L472 445L473 443M753 443L754 444L753 443z"/>
<path style="fill:#ce5c5e; stroke:none;" d="M842 443L843 444L842 443M473 444L474 445L473 444M753 444L754 445L753 444z"/>
<path style="fill:#fba09c; stroke:none;" d="M842 444L843 445L842 444M392.333 445.667L392.667 446.333L392.333 445.667z"/>
<path style="fill:#ce5c5e; stroke:none;" d="M472 445L473 446L472 445z"/>
<path style="fill:#fba09c; stroke:none;" d="M754 445L755 446L754 445z"/>
<path style="fill:#ce5c5e; stroke:none;" d="M843 445L844 446L843 445z"/>
<path style="fill:#fba09c; stroke:none;" d="M471 446L472 447L471 446z"/>
<path style="fill:#ce5c5e; stroke:none;" d="M754 446L755 447L754 446z"/>
<path style="fill:#fba09c; stroke:none;" d="M843.333 446.667L843.667 447.333L843.333 446.667z"/>
<path style="fill:#ce5c5e; stroke:none;" d="M391 447L392 448L391 447z"/>
<path style="fill:#fba09c; stroke:none;" d="M470 447L471 448L470 447M755 447L756 448L755 447M391 448L392 449L391 448z"/>
<path style="fill:#ce5c5e; stroke:none;" d="M470 448L471 449L470 448M755 448L756 449L755 448M844 448L845 449L844 448M1002 448L1007 464L1008 464L1008 448L1002 448M390 449L391 450L390 449z"/>
<path style="fill:#fba09c; stroke:none;" d="M469 449L468 451L469 449M756 449L757 450L756 449M844 449L845 450L844 449M390 450L391 451L390 450z"/>
<path style="fill:#ce5c5e; stroke:none;" d="M469 450L470 451L469 450M577 450L577 451L585 451L577 450M756.333 450.667L756.667 451.333L756.333 450.667M845 450L846 451L845 450M389 451L390 452L389 451M468 451L469 452L468 451M570.667 451.333L571.333 451.667L570.667 451.333z"/>
<path style="fill:#fba09c; stroke:none;" d="M572 451L572 452L579 452L572 451M580 451L580 452L589 452L580 451z"/>
<path style="fill:#ce5c5e; stroke:none;" d="M589 451L589 452L592 452L589 451z"/>
<path style="fill:#fba09c; stroke:none;" d="M757.333 451.667L757.667 452.333L757.333 451.667M845.333 451.667L845.667 452.333L845.333 451.667M389 452L390 453L389 452M467 452L468 453L467 452z"/>
<path style="fill:#ce5c5e; stroke:none;" d="M565 452L565 453L568 453L565 452z"/>
<path style="fill:#fba09c; stroke:none;" d="M568.667 452.333L569.333 452.667L568.667 452.333M592 452L592 453L595 453L592 452z"/>
<path style="fill:#ce5c5e; stroke:none;" d="M595 452L596 453L595 452M388 453L389 454L388 453M467 453L468 454L467 453M562.667 453.333L563.333 453.667L562.667 453.333z"/>
<path style="fill:#fba09c; stroke:none;" d="M564.667 453.333L565.333 453.667L564.667 453.333M596.667 453.333L597.333 453.667L596.667 453.333z"/>
<path style="fill:#ce5c5e; stroke:none;" d="M598.667 453.333L599.333 453.667L598.667 453.333M757 453L758 454L757 453M846 453L847 454L846 453z"/>
<path style="fill:#fba09c; stroke:none;" d="M388 454L389 455L388 454z"/>
<path style="fill:#ce5c5e; stroke:none;" d="M466 454L465 457L466 454M560 454L561 455L560 454z"/>
<path style="fill:#fba09c; stroke:none;" d="M561.667 454.333L562.333 454.667L561.667 454.333M599.667 454.333L600.333 454.667L599.667 454.333z"/>
<path style="fill:#ce5c5e; stroke:none;" d="M601 454L602 455L601 454z"/>
<path style="fill:#fba09c; stroke:none;" d="M758 454L759 455L758 454M846.333 454.667L846.667 455.333L846.333 454.667z"/>
<path style="fill:#ce5c5e; stroke:none;" d="M387 455L388 456L387 455z"/>
<path style="fill:#fba09c; stroke:none;" d="M465 455L466 456L465 455z"/>
<path style="fill:#ce5c5e; stroke:none;" d="M558 455L559 456L558 455z"/>
<path style="fill:#fba09c; stroke:none;" d="M559 455L560 456L559 455M602 455L603 456L602 455z"/>
<path style="fill:#ce5c5e; stroke:none;" d="M603 455L604 456L603 455M758 455L759 456L758 455M847.333 455.667L847.667 456.333L847.333 455.667M184 456L184 480L185 480L192 456L184 456z"/>
<path style="fill:#fba09c; stroke:none;" d="M387.333 456.667L387.667 457.333L387.333 456.667z"/>
<path style="fill:#ce5c5e; stroke:none;" d="M555 456L556 457L555 456z"/>
<path style="fill:#fba09c; stroke:none;" d="M556.667 456.333L557.333 456.667L556.667 456.333M604 456L605 457L604 456z"/>
<path style="fill:#ce5c5e; stroke:none;" d="M605 456L606 457L605 456z"/>
<path style="fill:#fba09c; stroke:none;" d="M759.333 456.667L759.667 457.333L759.333 456.667M464 457L465 458L464 457z"/>
<path style="fill:#ce5c5e; stroke:none;" d="M553 457L552 459L553 457z"/>
<path style="fill:#fba09c; stroke:none;" d="M554.667 457.333L555.333 457.667L554.667 457.333M606 457L608 459L606 457z"/>
<path style="fill:#ce5c5e; stroke:none;" d="M607 457L608 458L607 457z"/>
<path style="fill:#fba09c; stroke:none;" d="M847.333 457.667L847.667 458.333L847.333 457.667z"/>
<path style="fill:#ce5c5e; stroke:none;" d="M386 458L387 459L386 458M464 458L465 459L464 458z"/>
<path style="fill:#fba09c; stroke:none;" d="M553 458L554 459L553 458z"/>
<path style="fill:#ce5c5e; stroke:none;" d="M608 458L609 459L608 458M759 458L760 459L759 458M848.333 458.667L848.667 459.333L848.333 458.667z"/>
<path style="fill:#fba09c; stroke:none;" d="M386 459L387 460L386 459M463 459L461 463L462 463L463 459z"/>
<path style="fill:#ce5c5e; stroke:none;" d="M550 459L551 460L550 459z"/>
<path style="fill:#fba09c; stroke:none;" d="M551 459L552 460L551 459M609 459L611 461L609 459z"/>
<path style="fill:#ce5c5e; stroke:none;" d="M610 459L611 460L610 459z"/>
<path style="fill:#fba09c; stroke:none;" d="M760 459L761 460L760 459z"/>
<path style="fill:#ce5c5e; stroke:none;" d="M385 460L386 461L385 460M463 460L464 461L463 460z"/>
<path style="fill:#fba09c; stroke:none;" d="M549 460L550 461L549 460z"/>
<path style="fill:#ce5c5e; stroke:none;" d="M611 460L612 461L611 460M760.333 460.667L760.667 461.333L760.333 460.667z"/>
<path style="fill:#fba09c; stroke:none;" d="M848.333 460.667L848.667 461.333L848.333 460.667M385.333 461.667L385.667 462.333L385.333 461.667z"/>
<path style="fill:#ce5c5e; stroke:none;" d="M547 461L548 462L547 461z"/>
<path style="fill:#fba09c; stroke:none;" d="M548 461L549 462L548 461z"/>
<path style="fill:#ce5c5e; stroke:none;" d="M612 461L613 462L612 461z"/>
<path style="fill:#fba09c; stroke:none;" d="M761.333 461.667L761.667 462.333L761.333 461.667z"/>
<path style="fill:#ce5c5e; stroke:none;" d="M462 462L463 463L462 462z"/>
<path style="fill:#fba09c; stroke:none;" d="M546 462L547 463L546 462z"/>
<path style="fill:#ce5c5e; stroke:none;" d="M613 462L614 463L613 462M849 462L850 463L849 462M384 463L385 464L384 463M461 463L462 464L461 463M544 463L542 466L544 463z"/>
<path style="fill:#fba09c; stroke:none;" d="M545 463L546 464L545 463M614 463L615 464L614 463z"/>
<path style="fill:#ce5c5e; stroke:none;" d="M761.333 463.667L761.667 464.333L761.333 463.667z"/>
<path style="fill:#fba09c; stroke:none;" d="M849 463L849 466L850 466L849 463M384 464L385 465L384 464M460 464L461 465L460 464M544 464L545 465L544 464M615 464L616 465L615 464M762.333 464.667L762.667 465.333L762.333 464.667z"/>
<path style="fill:#ce5c5e; stroke:none;" d="M1008 464L1015 488L1016 488L1016 464L1008 464M383.333 465.667L383.667 466.333L383.333 465.667M460 465L461 466L460 465z"/>
<path style="fill:#fba09c; stroke:none;" d="M543 465L544 466L543 465z"/>
<path style="fill:#ce5c5e; stroke:none;" d="M616 465L617 466L616 465M850.333 465.667L850.667 466.333L850.333 465.667z"/>
<path style="fill:#fba09c; stroke:none;" d="M459 466L460 467L459 466z"/>
<path style="fill:#ce5c5e; stroke:none;" d="M541 466L542 467L541 466M617 466L619 468L617 466M762.333 466.667L762.667 467.333L762.333 466.667z"/>
<path style="fill:#fba09c; stroke:none;" d="M383 467L384 468L383 467z"/>
<path style="fill:#ce5c5e; stroke:none;" d="M459 467L460 468L459 467z"/>
<path style="fill:#fba09c; stroke:none;" d="M540 467L541 468L540 467M617 467L618 468L617 467M850.333 467.667L850.667 468.333L850.333 467.667z"/>
<path style="fill:#ce5c5e; stroke:none;" d="M382 468L383 469L382 468z"/>
<path style="fill:#fba09c; stroke:none;" d="M458 468L459 469L458 468M539 468L540 469L539 468M618 468L619 469L618 468M763.333 468.667L763.667 469.333L763.333 468.667M382.333 469.667L382.667 470.333L382.333 469.667z"/>
<path style="fill:#ce5c5e; stroke:none;" d="M458 469L459 470L458 469z"/>
<path style="fill:#fba09c; stroke:none;" d="M538 469L539 470L538 469M619 469L620 470L619 469z"/>
<path style="fill:#ce5c5e; stroke:none;" d="M851.333 469.667L851.667 470.333L851.333 469.667z"/>
<path style="fill:#fba09c; stroke:none;" d="M457.333 470.667L457.667 471.333L457.333 470.667M537 470L538 471L537 470z"/>
<path style="fill:#ce5c5e; stroke:none;" d="M620 470L621 471L620 470M763.333 470.667L763.667 471.333L763.333 470.667M381 471L382 472L381 471z"/>
<path style="fill:#fba09c; stroke:none;" d="M536 471L537 472L536 471M620 471L621 472L620 471M851.333 471.667L851.667 472.333L851.333 471.667M381.333 472.667L381.667 473.333L381.333 472.667M456.333 472.667L456.667 473.333L456.333 472.667M535 472L536 473L535 472M621 472L622 473L621 472M764.333 472.667L764.667 473.333L764.333 472.667z"/>
<path style="fill:#ce5c5e; stroke:none;" d="M534 473L535 474L534 473M622 473L623 474L622 473M852.333 473.667L852.667 474.333L852.333 473.667M380 474L381 475L380 474M456 474L457 475L456 474M533 474L534 475L533 474z"/>
<path style="fill:#fba09c; stroke:none;" d="M622 474L623 475L622 474z"/>
<path style="fill:#ce5c5e; stroke:none;" d="M764.333 474.667L764.667 475.333L764.333 474.667z"/>
<path style="fill:#fba09c; stroke:none;" d="M380.333 475.667L380.667 476.333L380.333 475.667M455 475L456 476L455 475M533 475L534 476L533 475z"/>
<path style="fill:#ce5c5e; stroke:none;" d="M623 475L624 476L623 475z"/>
<path style="fill:#fba09c; stroke:none;" d="M852 475L852 478L853 478L852 475z"/>
<path style="fill:#ce5c5e; stroke:none;" d="M455 476L456 477L455 476z"/>
<path style="fill:#fba09c; stroke:none;" d="M532 476L533 477L532 476M623 476L624 480L625 480L623 476M765 476L765 479L766 479L765 476z"/>
<path style="fill:#ce5c5e; stroke:none;" d="M379.333 477.667L379.667 478.333L379.333 477.667z"/>
<path style="fill:#fba09c; stroke:none;" d="M454 477L455 478L454 477M531 477L532 478L531 477z"/>
<path style="fill:#ce5c5e; stroke:none;" d="M624 477L625 478L624 477M853.333 477.667L853.667 478.333L853.333 477.667M454.333 478.667L454.667 479.333L454.333 478.667M530 478L529 480L530 478z"/>
<path style="fill:#fba09c; stroke:none;" d="M379.333 479.667L379.667 480.333L379.333 479.667M453.333 479.667L453.667 480.333L453.333 479.667M530 479L531 480L530 479z"/>
<path style="fill:#ce5c5e; stroke:none;" d="M625.333 479.667L625.667 480.333L625.333 479.667M765 479L766 480L765 479z"/>
<path style="fill:#fba09c; stroke:none;" d="M853 479L853 482L854 482L853 479z"/>
<path style="fill:#ce5c5e; stroke:none;" d="M176 480L176 510L177 510L184 480L176 480M378.333 480.667L378.667 481.333L378.333 480.667z"/>
<path style="fill:#fba09c; stroke:none;" d="M529 480L530 481L529 480M766 480L766 484L767 484L766 480z"/>
<path style="fill:#ce5c5e; stroke:none;" d="M453 481L454 482L453 481z"/>
<path style="fill:#fba09c; stroke:none;" d="M528 481L527 484L528 481M625 481L626 482L625 481M378.333 482.667L378.667 483.333L378.333 482.667M452 482L453 483L452 482z"/>
<path style="fill:#ce5c5e; stroke:none;" d="M527 482L528 483L527 482M626.333 482.667L626.667 483.333L626.333 482.667M854 482L854 485L855 485L854 482M452.333 483.667L452.667 484.333L452.333 483.667M377 484L378 485L377 484M526 484L527 485L526 484z"/>
<path style="fill:#fba09c; stroke:none;" d="M626.333 484.667L626.667 485.333L626.333 484.667z"/>
<path style="fill:#ce5c5e; stroke:none;" d="M766 484L766 487L767 487L766 484z"/>
<path style="fill:#fba09c; stroke:none;" d="M377 485L377 488L378 488L377 485M451 485L452 486L451 485M526 485L527 486L526 485z"/>
<path style="fill:#ce5c5e; stroke:none;" d="M627.333 485.667L627.667 486.333L627.333 485.667z"/>
<path style="fill:#fba09c; stroke:none;" d="M854 485L854 489L855 489L854 485z"/>
<path style="fill:#ce5c5e; stroke:none;" d="M451.333 486.667L451.667 487.333L451.333 486.667z"/>
<path style="fill:#fba09c; stroke:none;" d="M525 486L523 491L524 491L525 486M767 486L767 490L768 490L767 486z"/>
<path style="fill:#ce5c5e; stroke:none;" d="M376.333 487.667L376.667 488.333L376.333 487.667z"/>
<path style="fill:#fba09c; stroke:none;" d="M450.333 487.667L450.667 488.333L450.333 487.667z"/>
<path style="fill:#ce5c5e; stroke:none;" d="M524 487L525 488L524 487z"/>
<path style="fill:#fba09c; stroke:none;" d="M627.333 487.667L627.667 488.333L627.333 487.667z"/>
<path style="fill:#ce5c5e; stroke:none;" d="M855 488L855 491L856 491L855 488z"/>
<path style="fill:#fba09c; stroke:none;" d="M376 489L376 492L377 492L376 489z"/>
<path style="fill:#ce5c5e; stroke:none;" d="M450.333 489.667L450.667 490.333L450.333 489.667M523 489L524 490L523 489M628 489L628 492L629 492L628 489z"/>
<path style="fill:#fba09c; stroke:none;" d="M449.333 490.667L449.667 491.333L449.333 490.667z"/>
<path style="fill:#ce5c5e; stroke:none;" d="M767 490L767 496L768 496L767 490M522 491L523 492L522 491z"/>
<path style="fill:#fba09c; stroke:none;" d="M855 491L855 496L856 496L855 491z"/>
<path style="fill:#ce5c5e; stroke:none;" d="M375.333 492.667L375.667 493.333L375.333 492.667M449.333 492.667L449.667 493.333L449.333 492.667z"/>
<path style="fill:#fba09c; stroke:none;" d="M522 492L523 493L522 492M628 492L628 496L629 496L628 492M448 493L448 496L449 496L448 493z"/>
<path style="fill:#ce5c5e; stroke:none;" d="M521 493L522 494L521 493z"/>
<path style="fill:#fba09c; stroke:none;" d="M375.333 494.667L375.667 495.333L375.333 494.667M521 494L520 498L521 498L521 494M768 494L768 504L769 504L768 494z"/>
<path style="fill:#ce5c5e; stroke:none;" d="M520 495L521 496L520 495M629 495L629 499L630 499L629 495M374.333 496.667L374.667 497.333L374.333 496.667M448 496L449 497L448 496M856 496L856 499L857 499L856 496M1017 496L1023 522L1024 522L1024 496L1017 496z"/>
<path style="fill:#fba09c; stroke:none;" d="M447.333 497.667L447.667 498.333L447.333 497.667M374 498L374 502L375 502L374 498z"/>
<path style="fill:#ce5c5e; stroke:none;" d="M519 498L520 499L519 498M447.333 499.667L447.667 500.333L447.333 499.667z"/>
<path style="fill:#fba09c; stroke:none;" d="M519 499L518 503L519 503L519 499M629 499L629 512L630 512L629 499M856 499L856 507L857 507L856 499z"/>
<path style="fill:#ce5c5e; stroke:none;" d="M518 500L519 501L518 500M373 501L373 504L374 504L373 501z"/>
<path style="fill:#fba09c; stroke:none;" d="M446.333 501.667L446.667 502.333L446.333 501.667z"/>
<path style="fill:#ce5c5e; stroke:none;" d="M446 503L446 506L447 506L446 503M517 503L518 504L517 503z"/>
<path style="fill:#fba09c; stroke:none;" d="M373 504L373 508L374 508L373 504M517.333 504.667L517.667 505.333L517.333 504.667z"/>
<path style="fill:#ce5c5e; stroke:none;" d="M768 504L768 525L769 525L768 504z"/>
<path style="fill:#fba09c; stroke:none;" d="M445 505L445 508L446 508L445 505z"/>
<path style="fill:#ce5c5e; stroke:none;" d="M857 505L857 536L858 536L857 505M372 506L372 510L373 510L372 506M516 506L517 507L516 506z"/>
<path style="fill:#fba09c; stroke:none;" d="M516.333 507.667L516.667 508.333L516.333 507.667z"/>
<path style="fill:#ce5c5e; stroke:none;" d="M445.333 508.667L445.667 509.333L445.333 508.667z"/>
<path style="fill:#fba09c; stroke:none;" d="M856 508L857 509L856 508M444 509L444 512L445 512L444 509z"/>
<path style="fill:#ce5c5e; stroke:none;" d="M515 509L516 510L515 509z"/>
<path style="fill:#fba09c; stroke:none;" d="M372 510L372 515L373 515L372 510M515 510L515 513L516 513L515 510z"/>
<path style="fill:#ce5c5e; stroke:none;" d="M168 512L168 556L169 556L176 512L168 512M444.333 512.667L444.667 513.333L444.333 512.667M514 512L514 515L515 515L514 512M629 512L629 516L630 516L629 512z"/>
<path style="fill:#fba09c; stroke:none;" d="M443 515L443 518L444 518L443 515M514.333 515.667L514.667 516.333L514.333 515.667M628 515L628 520L629 520L628 515z"/>
<path style="fill:#ce5c5e; stroke:none;" d="M371 516L371 519L372 519L371 516M513 516L513 519L514 519L513 516M443 518L443 523L444 523L443 518z"/>
<path style="fill:#fba09c; stroke:none;" d="M371 519L371 530L372 530L371 519M513 519L513 522L514 522L513 519M442 520L442 526L443 526L442 520z"/>
<path style="fill:#ce5c5e; stroke:none;" d="M628 520L628 524L629 524L628 520M512.333 522.667L512.667 523.333L512.333 522.667z"/>
<path style="fill:#fba09c; stroke:none;" d="M627 523L627 526L628 526L627 523M512 524L512 529L513 529L512 524M768 525L768 536L769 536L768 525z"/>
<path style="fill:#ce5c5e; stroke:none;" d="M370 526L370 548L371 548L370 526M442 526L442 532L443 532L442 526M627 526L627 529L628 529L627 526M511 528L511 534L512 534L511 528z"/>
<path style="fill:#fba09c; stroke:none;" d="M626 528L626 532L627 532L626 528z"/>
<path style="fill:#ce5c5e; stroke:none;" d="M1024 528C1032.55 578.487 1036.11 637.732 1024 688L1200 688L1200 680L1032 680L1032 528L1024 528z"/>
<path style="fill:#fba09c; stroke:none;" d="M856 529L856 532L857 532L856 529M441 530L441 560L442 560L441 530z"/>
<path style="fill:#ce5c5e; stroke:none;" d="M626.333 532.667L626.667 533.333L626.333 532.667z"/>
<path style="fill:#fba09c; stroke:none;" d="M856 533L856 544L857 544L856 533M511 534L511 556L512 556L511 534M625.333 534.667L625.667 535.333L625.333 534.667z"/>
<path style="fill:#ce5c5e; stroke:none;" d="M625.333 536.667L625.667 537.333L625.333 536.667M767 536L767 541L768 541L767 536z"/>
<path style="fill:#fba09c; stroke:none;" d="M624 538L624 541L625 541L624 538z"/>
<path style="fill:#ce5c5e; stroke:none;" d="M624 541L625 542L624 541z"/>
<path style="fill:#fba09c; stroke:none;" d="M767 541L767 547L768 547L767 541M623.333 542.667L623.667 543.333L623.333 542.667z"/>
<path style="fill:#ce5c5e; stroke:none;" d="M510 544L510 548L511 548L510 544M623 544L623 547L624 547L623 544M856 544L856 549L857 549L856 544z"/>
<path style="fill:#fba09c; stroke:none;" d="M371 545L371 556L372 556L371 545M622.333 546.667L622.667 547.333L622.333 546.667z"/>
<path style="fill:#ce5c5e; stroke:none;" d="M766 546L766 550L767 550L766 546M622.333 548.667L622.667 549.333L622.333 548.667z"/>
<path style="fill:#fba09c; stroke:none;" d="M855 549L855 556L856 556L855 549M621.333 550.667L621.667 551.333L621.333 550.667M766 550L766 555L767 555L766 550z"/>
<path style="fill:#ce5c5e; stroke:none;" d="M621.333 552.667L621.667 553.333L621.333 552.667z"/>
<path style="fill:#fba09c; stroke:none;" d="M620 553L620 556L621 556L620 553z"/>
<path style="fill:#ce5c5e; stroke:none;" d="M765 554L765 558L766 558L765 554M371 556L371 560L372 560L371 556M511 556L511 561L512 561L511 556M620 556L621 557L620 556M855 556L855 560L856 560L855 556z"/>

<path style="fill:#ce5c5e; stroke:none;" d="M466.333 652.667L466.667 653.333L466.333 652.667z"/>
<path style="fill:#fba09c; stroke:none;" d="M510 652L510 655L511 655L510 652M733 652L734 653L733 652z"/>
<path style="fill:#ce5c5e; stroke:none;" d="M829 652L830 653L829 652z"/>
<path style="fill:#fba09c; stroke:none;" d="M412 653L413 654L412 653M732 653L731 656L732 653M828 653L829 654L828 653M413 654L414 655L413 654M465.333 654.667L465.667 655.333L465.333 654.667M596 654L596 658L597 658L596 654z"/>
<path style="fill:#ce5c5e; stroke:none;" d="M731 654L732 655L731 654M828 654L829 655L828 654z"/>
<path style="fill:#fba09c; stroke:none;" d="M414 655L415 656L414 655z"/>
<path style="fill:#ce5c5e; stroke:none;" d="M509.333 655.667L509.667 656.333L509.333 655.667z"/>
<path style="fill:#fba09c; stroke:none;" d="M827 655L828 656L827 655z"/>
<path style="fill:#ce5c5e; stroke:none;" d="M168 656L168 696L176 696L168 656M415 656L416 657L415 656M465.333 656.667L465.667 657.333L465.333 656.667z"/>
<path style="fill:#fba09c; stroke:none;" d="M730 656L731 657L730 656z"/>
<path style="fill:#ce5c5e; stroke:none;" d="M827 656L828 657L827 656M416 657L417 658L416 657z"/>
<path style="fill:#fba09c; stroke:none;" d="M509.333 657.667L509.667 658.333L509.333 657.667z"/>
<path style="fill:#ce5c5e; stroke:none;" d="M597 657L597 660L598 660L597 657M729 657L730 658L729 657z"/>
<path style="fill:#fba09c; stroke:none;" d="M826 657L827 658L826 657z"/>
<path style="fill:#ce5c5e; stroke:none;" d="M417 658L419 660L417 658z"/>
<path style="fill:#fba09c; stroke:none;" d="M418 658L419 659L418 658M464.333 658.667L464.667 659.333L464.333 658.667M729 658L730 659L729 658z"/>
<path style="fill:#ce5c5e; stroke:none;" d="M826 658L827 659L826 658z"/>
<path style="fill:#fba09c; stroke:none;" d="M419 659L420 660L419 659z"/>
<path style="fill:#ce5c5e; stroke:none;" d="M508 659L509 660L508 659z"/>
<path style="fill:#fba09c; stroke:none;" d="M728 659L726 663L728 659M825 659L826 660L825 659M420 660L421 661L420 660z"/>
<path style="fill:#ce5c5e; stroke:none;" d="M464.333 660.667L464.667 661.333L464.333 660.667z"/>
<path style="fill:#fba09c; stroke:none;" d="M508 660L508 663L509 663L508 660M597.333 660.667L597.667 661.333L597.333 660.667z"/>
<path style="fill:#ce5c5e; stroke:none;" d="M727 660L728 661L727 660M825 660L826 661L825 660M421 661L422 662L421 661M726 661L727 662L726 661z"/>
<path style="fill:#fba09c; stroke:none;" d="M824 661L825 662L824 661z"/>
<path style="fill:#ce5c5e; stroke:none;" d="M422 662L423 663L422 662z"/>
<path style="fill:#fba09c; stroke:none;" d="M423 662L424 663L423 662M463.333 662.667L463.667 663.333L463.333 662.667z"/>
<path style="fill:#ce5c5e; stroke:none;" d="M598.333 662.667L598.667 663.333L598.333 662.667M824 662L825 663L824 662z"/>
<path style="fill:#fba09c; stroke:none;" d="M424 663L425 664L424 663z"/>
<path style="fill:#ce5c5e; stroke:none;" d="M507.333 663.667L507.667 664.333L507.333 663.667z"/>
<path style="fill:#fba09c; stroke:none;" d="M725 663L726 664L725 663M823 663L822 666L823 666L823 663z"/>
<path style="fill:#ce5c5e; stroke:none;" d="M425 664L427 666L425 664z"/>
<path style="fill:#fba09c; stroke:none;" d="M426 664L427 665L426 664z"/>
<path style="fill:#ce5c5e; stroke:none;" d="M463.333 664.667L463.667 665.333L463.333 664.667z"/>
<path style="fill:#fba09c; stroke:none;" d="M598 664L599 665L598 664z"/>
<path style="fill:#ce5c5e; stroke:none;" d="M724 664L722 667L724 664M823 664L824 665L823 664z"/>
<path style="fill:#fba09c; stroke:none;" d="M427 665L428 666L427 665M462.333 665.667L462.667 666.333L462.333 665.667M507 665L507 668L508 668L507 665z"/>
<path style="fill:#ce5c5e; stroke:none;" d="M599 665L600 666L599 665z"/>
<path style="fill:#fba09c; stroke:none;" d="M724 665L725 666L724 665z"/>
<path style="fill:#ce5c5e; stroke:none;" d="M428 666L429 667L428 666z"/>
<path style="fill:#fba09c; stroke:none;" d="M429 666L430 667L429 666M599.333 666.667L599.667 667.333L599.333 666.667M723 666L724 667L723 666z"/>
<path style="fill:#ce5c5e; stroke:none;" d="M822 666L823 667L822 666M430 667L431 668L430 667z"/>
<path style="fill:#fba09c; stroke:none;" d="M431 667L432 668L431 667z"/>
<path style="fill:#ce5c5e; stroke:none;" d="M462 667L461 670L462 667M506 667L506 670L507 670L506 667z"/>
<path style="fill:#fba09c; stroke:none;" d="M722 667L723 668L722 667M821 667L822 668L821 667M432 668L432 669L435 670L432 668M461 668L462 669L461 668z"/>
<path style="fill:#ce5c5e; stroke:none;" d="M600 668L601 669L600 668z"/>
<path style="fill:#fba09c; stroke:none;" d="M721 668L722 669L721 668M820 668L821 669L820 668z"/>
<path style="fill:#ce5c5e; stroke:none;" d="M433 669L434 670L433 669z"/>
<path style="fill:#fba09c; stroke:none;" d="M600 669L601 670L600 669z"/>
<path style="fill:#ce5c5e; stroke:none;" d="M720 669L721 670L720 669M820 669L821 670L820 669M435 670L438 672L438 671L435 670z"/>
<path style="fill:#fba09c; stroke:none;" d="M436 670L437 671L436 670M460 670L461 671L460 670M506.333 670.667L506.667 671.333L506.333 670.667z"/>
<path style="fill:#ce5c5e; stroke:none;" d="M601 670L602 671L601 670M719 670L709 681L719 670z"/>
<path style="fill:#fba09c; stroke:none;" d="M819 670L820 671L819 670M438 671L439 672L438 671z"/>
<path style="fill:#ce5c5e; stroke:none;" d="M460 671L461 672L460 671z"/>
<path style="fill:#fba09c; stroke:none;" d="M601 671L602 672L601 671M719 671L720 672L719 671z"/>
<path style="fill:#ce5c5e; stroke:none;" d="M819 671L820 672L819 671M439 672L440 673L439 672z"/>
<path style="fill:#fba09c; stroke:none;" d="M440 672L441 673L440 672M458 672L457 674L458 672z"/>
<path style="fill:#ce5c5e; stroke:none;" d="M459 672L460 673L459 672M505.333 672.667L505.667 673.333L505.333 672.667M602 672L603 673L602 672z"/>
<path style="fill:#fba09c; stroke:none;" d="M718 672L719 673L718 672M818 672L819 673L818 672z"/>
<path style="fill:#ce5c5e; stroke:none;" d="M441 673L442 674L441 673z"/>
<path style="fill:#fba09c; stroke:none;" d="M442 673L442 674L446 675L446 674L442 673z"/>
<path style="fill:#ce5c5e; stroke:none;" d="M458 673L459 674L458 673z"/>
<path style="fill:#fba09c; stroke:none;" d="M602 673L603 674L602 673M717 673L718 674L717 673M817 673L818 674L817 673z"/>
<path style="fill:#ce5c5e; stroke:none;" d="M443 674L444 675L443 674z"/>
<path style="fill:#fba09c; stroke:none;" d="M455.667 674.333L456.333 674.667L455.667 674.333M505.333 674.667L505.667 675.333L505.333 674.667z"/>
<path style="fill:#ce5c5e; stroke:none;" d="M603 674L604 675L603 674z"/>
<path style="fill:#fba09c; stroke:none;" d="M716 674L717 675L716 674z"/>
<path style="fill:#ce5c5e; stroke:none;" d="M817 674L818 675L817 674M446.667 675.333L447.333 675.667L446.667 675.333z"/>
<path style="fill:#fba09c; stroke:none;" d="M448 675L448 676L454 676L448 675z"/>
<path style="fill:#ce5c5e; stroke:none;" d="M454.667 675.333L455.333 675.667L454.667 675.333z"/>
<path style="fill:#fba09c; stroke:none;" d="M603 675L604 676L603 675M715 675L716 676L715 675M816 675L817 676L816 675z"/>
<path style="fill:#ce5c5e; stroke:none;" d="M504.333 676.667L504.667 677.333L504.333 676.667z"/>
<path style="fill:#fba09c; stroke:none;" d="M604 676L606 679L604 676M714 676L715 677L714 676z"/>
<path style="fill:#ce5c5e; stroke:none;" d="M816 676L817 677L816 676M605 677L606 678L605 677z"/>
<path style="fill:#fba09c; stroke:none;" d="M713 677L714 678L713 677M815 677L814 679L815 677M504.333 678.667L504.667 679.333L504.333 678.667M712 678L713 679L712 678z"/>
<path style="fill:#ce5c5e; stroke:none;" d="M815 678L816 679L815 678M606 679L607 680L606 679z"/>
<path style="fill:#fba09c; stroke:none;" d="M711 679L712 680L711 679z"/>
<path style="fill:#ce5c5e; stroke:none;" d="M814 679L815 680L814 679M607 680L610 683L607 680z"/>
<path style="fill:#fba09c; stroke:none;" d="M710 680L711 681L710 680M813 680L812 682L813 680z"/>
<path style="fill:#ce5c5e; stroke:none;" d="M503 681L504 682L503 681z"/>
<path style="fill:#fba09c; stroke:none;" d="M607 681L608 682L607 681z"/>
<path style="fill:#ce5c5e; stroke:none;" d="M708 681L709 682L708 681M813 681L814 682L813 681z"/>
<path style="fill:#fba09c; stroke:none;" d="M503 682L503 685L504 685L503 682M608 682L609 683L608 682M707 682L708 683L707 682z"/>
<path style="fill:#ce5c5e; stroke:none;" d="M812 682L813 683L812 682z"/>
<path style="fill:#fba09c; stroke:none;" d="M609 683L610 684L609 683M706 683L707 684L706 683M811 683L812 684L811 683z"/>
<path style="fill:#ce5c5e; stroke:none;" d="M502.333 684.667L502.667 685.333L502.333 684.667z"/>
<path style="fill:#fba09c; stroke:none;" d="M610 684L611 685L610 684z"/>
<path style="fill:#ce5c5e; stroke:none;" d="M704 684L703 686L704 684z"/>
<path style="fill:#fba09c; stroke:none;" d="M705 684L706 685L705 684M810 684L811 685L810 684M611 685L612 686L611 685M704 685L705 686L704 685z"/>
<path style="fill:#ce5c5e; stroke:none;" d="M810 685L811 686L810 685z"/>
<path style="fill:#fba09c; stroke:none;" d="M502 686L502 689L503 689L502 686M612 686L613 687L612 686z"/>
<path style="fill:#ce5c5e; stroke:none;" d="M701 686L700 688L701 686z"/>
<path style="fill:#fba09c; stroke:none;" d="M702 686L703 687L702 686M809 686L808 688L809 686M613 687L614 688L613 687M701 687L702 688L701 687z"/>
<path style="fill:#ce5c5e; stroke:none;" d="M809 687L810 688L809 687z"/>
<path style="fill:#fba09c; stroke:none;" d="M614 688L616 690L614 688z"/>
<path style="fill:#ce5c5e; stroke:none;" d="M615 688L616 689L615 688z"/>
<path style="fill:#fba09c; stroke:none;" d="M699 688L700 689L699 688z"/>
<path style="fill:#ce5c5e; stroke:none;" d="M808 688L809 689L808 688z"/>
<path style="fill:#040303; stroke:none;" d="M1024 688L1024 720L1016 720L1016 744L1200 744L1200 688L1024 688z"/>
<path style="fill:#ce5c5e; stroke:none;" d="M501.333 689.667L501.667 690.333L501.333 689.667M616 689L617 690L616 689M697 689L698 690L697 689z"/>
<path style="fill:#fba09c; stroke:none;" d="M698 689L699 690L698 689z"/>
<path style="fill:#ce5c5e; stroke:none;" d="M807 689L808 690L807 689M617 690L618 691L617 690M695 690L694 692L695 690z"/>
<path style="fill:#fba09c; stroke:none;" d="M696 690L697 691L696 690M806 690L807 691L806 690M501 691L501 694L502 694L501 691M618 691L619 692L618 691M695 691L696 692L695 691M805 691L806 692L805 691M619 692L620 693L619 692z"/>
<path style="fill:#ce5c5e; stroke:none;" d="M620 692L621 693L620 692M692 692L693 693L692 692z"/>
<path style="fill:#fba09c; stroke:none;" d="M693 692L694 693L693 692z"/>
<path style="fill:#ce5c5e; stroke:none;" d="M805 692L806 693L805 692M1023 692L1016 720L1024 720L1023 692M500.333 693.667L500.667 694.333L500.333 693.667z"/>
<path style="fill:#fba09c; stroke:none;" d="M621 693L624 695L624 694L621 693z"/>
<path style="fill:#ce5c5e; stroke:none;" d="M622 693L623 694L622 693M690 693L691 694L690 693z"/>
<path style="fill:#fba09c; stroke:none;" d="M691 693L692 694L691 693z"/>
<path style="fill:#ce5c5e; stroke:none;" d="M804 693L805 694L804 693M688 694L689 695L688 694z"/>
<path style="fill:#fba09c; stroke:none;" d="M689 694L690 695L689 694M803 694L804 695L803 694M500 695L500 698L501 698L500 695M624 695L625 696L624 695z"/>
<path style="fill:#ce5c5e; stroke:none;" d="M625 695L626 696L625 695M686 695L687 696L686 695z"/>
<path style="fill:#fba09c; stroke:none;" d="M687 695L688 696L687 695M802 695L801 697L802 695M626 696L627 697L626 696z"/>
<path style="fill:#ce5c5e; stroke:none;" d="M627 696L628 697L627 696M683.667 696.333L684.333 696.667L683.667 696.333z"/>
<path style="fill:#fba09c; stroke:none;" d="M685 696L686 697L685 696z"/>
<path style="fill:#ce5c5e; stroke:none;" d="M802 696L803 697L802 696M499.333 697.667L499.667 698.333L499.333 697.667z"/>
<path style="fill:#fba09c; stroke:none;" d="M628 697L629 698L628 697z"/>
<path style="fill:#ce5c5e; stroke:none;" d="M629.667 697.333L630.333 697.667L629.667 697.333M681 697L682 698L681 697z"/>
<path style="fill:#fba09c; stroke:none;" d="M682.667 697.333L683.333 697.667L682.667 697.333z"/>
<path style="fill:#ce5c5e; stroke:none;" d="M801 697L802 698L801 697z"/>
<path style="fill:#fba09c; stroke:none;" d="M631 698L632 699L631 698z"/>
<path style="fill:#ce5c5e; stroke:none;" d="M632 698L633 699L632 698M678.667 698.333L679.333 698.667L678.667 698.333z"/>
<path style="fill:#fba09c; stroke:none;" d="M680 698L681 699L680 698M800 698L801 699L800 698M499 699L499 702L500 702L499 699M633.667 699.333L634.333 699.667L633.667 699.333z"/>
<path style="fill:#ce5c5e; stroke:none;" d="M635.667 699.333L636.333 699.667L635.667 699.333M674.667 699.333L675.333 699.667L674.667 699.333z"/>
<path style="fill:#fba09c; stroke:none;" d="M676.667 699.333L677.333 699.667L676.667 699.333M799 699L800 700L799 699M636.667 700.333L637.333 700.667L636.667 700.333z"/>
<path style="fill:#ce5c5e; stroke:none;" d="M638.667 700.333L639.333 700.667L638.667 700.333M670.667 700.333L671.333 700.667L670.667 700.333z"/>
<path style="fill:#fba09c; stroke:none;" d="M672 700L672 701L675 701L672 700M798 700L797 702L798 700z"/>
<path style="fill:#ce5c5e; stroke:none;" d="M498 701L498 704L499 704L498 701z"/>
<path style="fill:#fba09c; stroke:none;" d="M640 701L640 702L643 702L640 701z"/>
<path style="fill:#ce5c5e; stroke:none;" d="M643.667 701.333L644.333 701.667L643.667 701.333M665.667 701.333L666.333 701.667L665.667 701.333z"/>
<path style="fill:#fba09c; stroke:none;" d="M667 701L667 702L671 702L667 701z"/>
<path style="fill:#ce5c5e; stroke:none;" d="M798 701L799 702L798 701M176 702L176 728L184 728L176 702z"/>
<path style="fill:#fba09c; stroke:none;" d="M645 702L645 703L652 703L645 702z"/>
<path style="fill:#ce5c5e; stroke:none;" d="M652 702L652 703L660 703L652 702z"/>
<path style="fill:#fba09c; stroke:none;" d="M660 702L660 703L665 703L660 702z"/>
<path style="fill:#ce5c5e; stroke:none;" d="M797 702L798 703L797 702M796 703L797 704L796 703z"/>
<path style="fill:#fba09c; stroke:none;" d="M498.333 704.667L498.667 705.333L498.333 704.667M795 704L796 705L795 704M794 705L795 706L794 705z"/>
<path style="fill:#ce5c5e; stroke:none;" d="M497.333 706.667L497.667 707.333L497.333 706.667z"/>
<path style="fill:#fba09c; stroke:none;" d="M793 706L794 707L793 706M792 707L793 708L792 707M497.333 708.667L497.667 709.333L497.333 708.667M791 708L782 718L791 708z"/>
<path style="fill:#ce5c5e; stroke:none;" d="M496 709L496 712L497 712L496 709M791 709L792 710L791 709M790 710L791 711L790 710M789 711L790 712L789 711z"/>
<path style="fill:#fba09c; stroke:none;" d="M496.333 712.667L496.667 713.333L496.333 712.667z"/>
<path style="fill:#ce5c5e; stroke:none;" d="M788 712L789 713L788 712M787 713L788 714L787 713M495.333 714.667L495.667 715.333L495.333 714.667M786 714L787 715L786 714M785 715L786 716L785 715z"/>
<path style="fill:#fba09c; stroke:none;" d="M495 716L495 719L496 719L495 716z"/>
<path style="fill:#ce5c5e; stroke:none;" d="M784 716L785 717L784 716M783 717L784 718L783 717M494.333 718.667L494.667 719.333L494.333 718.667z"/>
<path style="fill:#fba09c; stroke:none;" d="M781 718L782 719L781 718M780 719L781 720L780 719M494 720L494 723L495 723L494 720M779 720L780 721L779 720M573 724L574 724L576 723L576 722L573 724M778 721L779 722L778 721z"/>
<path style="fill:#ce5c5e; stroke:none;" d="M493.333 722.667L493.667 723.333L493.333 722.667M574 722L575 723L574 722z"/>
<path style="fill:#fba09c; stroke:none;" d="M776 722L777 723L776 722z"/>
<path style="fill:#ce5c5e; stroke:none;" d="M777 722L778 723L777 722z"/>
<path style="fill:#fba09c; stroke:none;" d="M576 723L577 724L576 723z"/>
<path style="fill:#ce5c5e; stroke:none;" d="M776 723L777 724L776 723z"/>
<path style="fill:#fba09c; stroke:none;" d="M493 724L493 728L494 728L493 724z"/>
<path style="fill:#ce5c5e; stroke:none;" d="M573 724L573 727L574 727L573 724M576 724L577 725L576 724z"/>
<path style="fill:#fba09c; stroke:none;" d="M774 724L773 726L774 724z"/>
<path style="fill:#ce5c5e; stroke:none;" d="M775 724L776 725L775 724M1015 724L1000 768L1008 768L1008 752L1200 752L1200 744L1016 744L1015 724z"/>
<path style="fill:#fba09c; stroke:none;" d="M577 725L579 727L577 725z"/>
<path style="fill:#ce5c5e; stroke:none;" d="M774 725L775 726L774 725z"/>
<path style="fill:#fba09c; stroke:none;" d="M572 726L572 729L573 729L572 726z"/>
<path style="fill:#ce5c5e; stroke:none;" d="M577 726L578 727L577 726z"/>
<path style="fill:#fba09c; stroke:none;" d="M772 726L773 727L772 726z"/>
<path style="fill:#ce5c5e; stroke:none;" d="M492.333 727.667L492.667 728.333L492.333 727.667M578 727L579 728L578 727z"/>
<path style="fill:#fba09c; stroke:none;" d="M771 727L772 728L771 727z"/>
<path style="fill:#ce5c5e; stroke:none;" d="M579 728L580 729L579 728z"/>
<path style="fill:#fba09c; stroke:none;" d="M769 728L768 730L769 728z"/>
<path style="fill:#ce5c5e; stroke:none;" d="M770 728L771 729L770 728z"/>
<path style="fill:#fba09c; stroke:none;" d="M492 729L492 732L493 732L492 729z"/>
<path style="fill:#ce5c5e; stroke:none;" d="M572.333 729.667L572.667 730.333L572.333 729.667z"/>
<path style="fill:#fba09c; stroke:none;" d="M580 729L581 730L580 729z"/>
<path style="fill:#ce5c5e; stroke:none;" d="M769 729L770 730L769 729z"/>
<path style="fill:#fba09c; stroke:none;" d="M571.333 730.667L571.667 731.333L571.333 730.667M581 730L582 731L581 730M767 730L768 731L767 730z"/>
<path style="fill:#ce5c5e; stroke:none;" d="M491.333 731.667L491.667 732.333L491.333 731.667z"/>
<path style="fill:#fba09c; stroke:none;" d="M582 731L587 736L582 731M765 731L764 733L765 731z"/>
<path style="fill:#ce5c5e; stroke:none;" d="M766 731L767 732L766 731M571 732L571 735L572 735L571 732M582 732L583 733L582 732M765 732L766 733L765 732z"/>
<path style="fill:#fba09c; stroke:none;" d="M491 733L491 736L492 736L491 733z"/>
<path style="fill:#ce5c5e; stroke:none;" d="M583 733L584 734L583 733z"/>
<path style="fill:#fba09c; stroke:none;" d="M762 733L760 736L762 733z"/>
<path style="fill:#ce5c5e; stroke:none;" d="M763 733L764 734L763 733M184 734L184 752L190 752L184 734z"/>
<path style="fill:#fba09c; stroke:none;" d="M570.333 734.667L570.667 735.333L570.333 734.667z"/>
<path style="fill:#ce5c5e; stroke:none;" d="M584 734L585 735L584 734M762 734L763 735L762 734M490.333 735.667L490.667 736.333L490.333 735.667M585 735L586 736L585 735M761 735L762 736L761 735M570 736L570 739L571 739L570 736M586 736L587 737L586 736z"/>
<path style="fill:#fba09c; stroke:none;" d="M758 736L757 738L758 736z"/>
<path style="fill:#ce5c5e; stroke:none;" d="M759 736L760 737L759 736z"/>
<path style="fill:#fba09c; stroke:none;" d="M490 737L490 740L491 740L490 737z"/>
<path style="fill:#ce5c5e; stroke:none;" d="M587 737L590 740L587 737z"/>
<path style="fill:#fba09c; stroke:none;" d="M588 737L589 738L588 737z"/>
<path style="fill:#ce5c5e; stroke:none;" d="M758 737L759 738L758 737z"/>
<path style="fill:#fba09c; stroke:none;" d="M569 738L569 741L570 741L569 738M589 738L590 739L589 738M755 738L756 739L755 738z"/>
<path style="fill:#ce5c5e; stroke:none;" d="M756 738L757 739L756 738z"/>
<path style="fill:#fba09c; stroke:none;" d="M590 739L591 740L590 739M752 741L755 740L752 741z"/>
<path style="fill:#ce5c5e; stroke:none;" d="M489 740L490 741L489 740z"/>
<path style="fill:#fba09c; stroke:none;" d="M591 740L592 741L591 740z"/>
<path style="fill:#ce5c5e; stroke:none;" d="M753 740L754 741L753 740z"/>
<path style="fill:#fba09c; stroke:none;" d="M489 741L489 744L490 744L489 741z"/>
<path style="fill:#ce5c5e; stroke:none;" d="M569 741L570 742L569 741M592 741L593 742L592 741z"/>
<path style="fill:#fba09c; stroke:none;" d="M750 741L751 742L750 741z"/>
<path style="fill:#ce5c5e; stroke:none;" d="M751 741L752 742L751 741z"/>
<path style="fill:#fba09c; stroke:none;" d="M568 742L568 745L569 745L568 742z"/>
<path style="fill:#ce5c5e; stroke:none;" d="M593 742L595 744L593 742z"/>
<path style="fill:#fba09c; stroke:none;" d="M594 742L595 743L594 742M748 742L747 744L748 742z"/>
<path style="fill:#ce5c5e; stroke:none;" d="M749 742L750 743L749 742z"/>
<path style="fill:#fba09c; stroke:none;" d="M595 743L596 744L595 743z"/>
<path style="fill:#ce5c5e; stroke:none;" d="M748 743L749 744L748 743M488.333 744.667L488.667 745.333L488.333 744.667z"/>
<path style="fill:#fba09c; stroke:none;" d="M596 744L597 745L596 744M745 744L746 745L745 744z"/>
<path style="fill:#ce5c5e; stroke:none;" d="M746 744L747 745L746 744M568 745L569 746L568 745M597 745L598 746L597 745z"/>
<path style="fill:#fba09c; stroke:none;" d="M598 745L599 746L598 745M743 745L744 746L743 745z"/>
<path style="fill:#ce5c5e; stroke:none;" d="M744 745L745 746L744 745z"/>
<path style="fill:#fba09c; stroke:none;" d="M488.333 746.667L488.667 747.333L488.333 746.667M567.333 746.667L567.667 747.333L567.333 746.667M599 746L600 747L599 746M741 746L742 747L741 746z"/>
<path style="fill:#ce5c5e; stroke:none;" d="M742 746L743 747L742 746M600 747L601 748L600 747z"/>
<path style="fill:#fba09c; stroke:none;" d="M601 747L602 748L601 747M739 747L740 748L739 747z"/>
<path style="fill:#ce5c5e; stroke:none;" d="M740 747L741 748L740 747M487.333 748.667L487.667 749.333L487.333 748.667M567.333 748.667L567.667 749.333L567.333 748.667M602 748L604 750L602 748z"/>
<path style="fill:#fba09c; stroke:none;" d="M603 748L604 749L603 748M737 748L738 749L737 748z"/>
<path style="fill:#ce5c5e; stroke:none;" d="M738 748L739 749L738 748z"/>
<path style="fill:#fba09c; stroke:none;" d="M604 749L605 750L604 749M735 749L736 750L735 749z"/>
<path style="fill:#ce5c5e; stroke:none;" d="M736 749L737 750L736 749z"/>
<path style="fill:#fba09c; stroke:none;" d="M487 750L487 753L488 753L487 750M566.333 750.667L566.667 751.333L566.333 750.667z"/>
<path style="fill:#ce5c5e; stroke:none;" d="M605 750L606 751L605 750z"/>
<path style="fill:#fba09c; stroke:none;" d="M606 750L607 751L606 750M732.667 750.333L733.333 750.667L732.667 750.333z"/>
<path style="fill:#ce5c5e; stroke:none;" d="M734 750L735 751L734 750M607 751L608 752L607 751z"/>
<path style="fill:#fba09c; stroke:none;" d="M608 751L609 752L608 751M730 751L731 752L730 751z"/>
<path style="fill:#ce5c5e; stroke:none;" d="M731.667 751.333L732.333 751.667L731.667 751.333M486.333 752.667L486.667 753.333L486.333 752.667M566.333 752.667L566.667 753.333L566.333 752.667M609 752L610 753L609 752z"/>
<path style="fill:#fba09c; stroke:none;" d="M610 752L611 753L610 752M725 753L725 754L729 753L725 753z"/>
<path style="fill:#ce5c5e; stroke:none;" d="M729 752L730 753L729 752z"/>
<path style="fill:#040303; stroke:none;" d="M1008 752L1008 768L1000 768L1000 784L1200 784L1200 752L1008 752z"/>
<path style="fill:#ce5c5e; stroke:none;" d="M611 753L612 754L611 753z"/>
<path style="fill:#fba09c; stroke:none;" d="M612 753L613 754L612 753z"/>
<path style="fill:#ce5c5e; stroke:none;" d="M727 753L728 754L727 753z"/>
<path style="fill:#fba09c; stroke:none;" d="M486 754L486 757L487 757L486 754M565.333 754.667L565.667 755.333L565.333 754.667z"/>
<path style="fill:#ce5c5e; stroke:none;" d="M613 754L614 755L613 754z"/>
<path style="fill:#fba09c; stroke:none;" d="M614 754L615 755L614 754M722.667 754.333L723.333 754.667L722.667 754.333z"/>
<path style="fill:#ce5c5e; stroke:none;" d="M724 754L725 755L724 754M615 755L616 756L615 755z"/>
<path style="fill:#fba09c; stroke:none;" d="M616 755L616 756L620 757L620 756L616 755M720 755L721 756L720 755z"/>
<path style="fill:#ce5c5e; stroke:none;" d="M721.667 755.333L722.333 755.667L721.667 755.333M485.333 756.667L485.667 757.333L485.333 756.667M565 756L565 759L566 759L565 756M617 756L618 757L617 756z"/>
<path style="fill:#fba09c; stroke:none;" d="M716.667 756.333L717.333 756.667L716.667 756.333z"/>
<path style="fill:#ce5c5e; stroke:none;" d="M718.667 756.333L719.333 756.667L718.667 756.333M192 757L192 776L200 776L192 757M620 757L621 758L620 757z"/>
<path style="fill:#fba09c; stroke:none;" d="M621.667 757.333L622.333 757.667L621.667 757.333M713.667 757.333L714.333 757.667L713.667 757.333z"/>
<path style="fill:#ce5c5e; stroke:none;" d="M715.667 757.333L716.333 757.667L715.667 757.333z"/>
<path style="fill:#fba09c; stroke:none;" d="M485 758L485 761L486 761L485 758M564.333 758.667L564.667 759.333L564.333 758.667z"/>
<path style="fill:#ce5c5e; stroke:none;" d="M623 758L624 759L623 758z"/>
<path style="fill:#fba09c; stroke:none;" d="M624 758L624 759L628 760L628 759L624 758M709 758L709 759L712 759L709 758z"/>
<path style="fill:#ce5c5e; stroke:none;" d="M712.667 758.333L713.333 758.667L712.667 758.333M625 759L626 760L625 759z"/>
<path style="fill:#fba09c; stroke:none;" d="M706.667 759.333L707.333 759.667L706.667 759.333z"/>
<path style="fill:#ce5c5e; stroke:none;" d="M708.667 759.333L709.333 759.667L708.667 759.333M564.333 760.667L564.667 761.333L564.333 760.667M628.667 760.333L629.333 760.667L628.667 760.333z"/>
<path style="fill:#fba09c; stroke:none;" d="M630.667 760.333L631.333 760.667L630.667 760.333M702.667 760.333L703.333 760.667L702.667 760.333z"/>
<path style="fill:#ce5c5e; stroke:none;" d="M704.667 760.333L705.333 760.667L704.667 760.333M484.333 761.667L484.667 762.333L484.333 761.667M632 761L633 762L632 761z"/>
<path style="fill:#fba09c; stroke:none;" d="M633 761L633 762L636 762L633 761M698.667 761.333L699.333 761.667L698.667 761.333z"/>
<path style="fill:#ce5c5e; stroke:none;" d="M700.667 761.333L701.333 761.667L700.667 761.333z"/>
<path style="fill:#fba09c; stroke:none;" d="M563.333 762.667L563.667 763.333L563.333 762.667z"/>
<path style="fill:#ce5c5e; stroke:none;" d="M636.667 762.333L637.333 762.667L636.667 762.333z"/>
<path style="fill:#fba09c; stroke:none;" d="M638.667 762.333L639.333 762.667L638.667 762.333M691 762L691 763L695 763L691 762z"/>
<path style="fill:#ce5c5e; stroke:none;" d="M695.667 762.333L696.333 762.667L695.667 762.333z"/>
<path style="fill:#fba09c; stroke:none;" d="M484.333 763.667L484.667 764.333L484.333 763.667z"/>
<path style="fill:#ce5c5e; stroke:none;" d="M639 763L639 764L642 764L639 763z"/>
<path style="fill:#fba09c; stroke:none;" d="M642 763L642 764L646 764L642 763M684 763L684 764L689 764L684 763z"/>
<path style="fill:#ce5c5e; stroke:none;" d="M689 763L689 764L692 764L689 763M563.333 764.667L563.667 765.333L563.333 764.667M646 764L646 765L649 765L646 764z"/>
<path style="fill:#fba09c; stroke:none;" d="M649 764L649 765L656 765L649 764M671 764L671 765L681 765L671 764z"/>
<path style="fill:#ce5c5e; stroke:none;" d="M681 764L681 765L684 765L681 764M483.333 765.667L483.667 766.333L483.333 765.667z"/>
<path style="fill:#fba09c; stroke:none;" d="M562 765L562 768L563 768L562 765z"/>
<path style="fill:#ce5c5e; stroke:none;" d="M654 765L654 766L672 766L654 765z"/>
<path style="fill:#fba09c; stroke:none;" d="M483 767L483 770L484 770L483 767z"/>
<path style="fill:#ce5c5e; stroke:none;" d="M562.333 768.667L562.667 769.333L562.333 768.667M482.333 769.667L482.667 770.333L482.333 769.667z"/>
<path style="fill:#fba09c; stroke:none;" d="M561.333 770.667L561.667 771.333L561.333 770.667z"/>
<path style="fill:#ce5c5e; stroke:none;" d="M999 770L968 832L976 832L976 824L1200 824L1200 816L984 816L984 808L992 808L992 792L1200 792L1200 784L1000 784L999 770z"/>
<path style="fill:#fba09c; stroke:none;" d="M482 771L482 774L483 774L482 771z"/>
<path style="fill:#ce5c5e; stroke:none;" d="M561.333 772.667L561.667 773.333L561.333 772.667M481.333 773.667L481.667 774.333L481.333 773.667z"/>
<path style="fill:#fba09c; stroke:none;" d="M560 773L560 776L561 776L560 773M481 775L481 778L482 778L481 775z"/>
<path style="fill:#ce5c5e; stroke:none;" d="M200 776L200 792L208 792L200 776M560.333 776.667L560.667 777.333L560.333 776.667M480 777L480 780L481 780L480 777z"/>
<path style="fill:#fba09c; stroke:none;" d="M559.333 778.667L559.667 779.333L559.333 778.667M480.333 780.667L480.667 781.333L480.333 780.667z"/>
<path style="fill:#ce5c5e; stroke:none;" d="M559.333 780.667L559.667 781.333L559.333 780.667z"/>
<path style="fill:#fba09c; stroke:none;" d="M558 781L558 784L559 784L558 781z"/>
<path style="fill:#ce5c5e; stroke:none;" d="M479.333 782.667L479.667 783.333L479.333 782.667z"/>
<path style="fill:#fba09c; stroke:none;" d="M479 784L479 787L480 787L479 784z"/>
<path style="fill:#ce5c5e; stroke:none;" d="M558.333 784.667L558.667 785.333L558.333 784.667z"/>
<path style="fill:#fba09c; stroke:none;" d="M557 785L557 788L558 788L557 785z"/>
<path style="fill:#ce5c5e; stroke:none;" d="M478.333 786.667L478.667 787.333L478.333 786.667z"/>
<path style="fill:#fba09c; stroke:none;" d="M478 788L478 791L479 791L478 788z"/>
<path style="fill:#ce5c5e; stroke:none;" d="M557.333 788.667L557.667 789.333L557.333 788.667z"/>
<path style="fill:#fba09c; stroke:none;" d="M556.333 789.667L556.667 790.333L556.333 789.667z"/>
<path style="fill:#ce5c5e; stroke:none;" d="M477.333 790.667L477.667 791.333L477.333 790.667M556.333 791.667L556.667 792.333L556.333 791.667z"/>
<path style="fill:#fba09c; stroke:none;" d="M477 792L477 795L478 795L477 792z"/>
<path style="fill:#040303; stroke:none;" d="M992 792L992 808L984 808L984 816L1200 816L1200 792L992 792z"/>
<path style="fill:#fba09c; stroke:none;" d="M555.333 793.667L555.667 794.333L555.333 793.667z"/>
<path style="fill:#ce5c5e; stroke:none;" d="M208 794L208 808L216 808L210 794L208 794M476 794L476 797L477 797L476 794M555 795L555 798L556 798L555 795z"/>
<path style="fill:#fba09c; stroke:none;" d="M476 797L476 800L477 800L476 797M554.333 797.667L554.667 798.333L554.333 797.667z"/>
<path style="fill:#ce5c5e; stroke:none;" d="M475.333 799.667L475.667 800.333L475.333 799.667M554.333 799.667L554.667 800.333L554.333 799.667z"/>
<path style="fill:#fba09c; stroke:none;" d="M475 801L475 804L476 804L475 801M553.333 801.667L553.667 802.333L553.333 801.667z"/>
<path style="fill:#ce5c5e; stroke:none;" d="M474 803L474 806L475 806L474 803M553.333 803.667L553.667 804.333L553.333 803.667z"/>
<path style="fill:#fba09c; stroke:none;" d="M552 804L552 807L553 807L552 804M474 806L474 809L475 809L474 806z"/>
<path style="fill:#ce5c5e; stroke:none;" d="M552.333 807.667L552.667 808.333L552.333 807.667M473.333 809.667L473.667 810.333L473.333 809.667z"/>
<path style="fill:#fba09c; stroke:none;" d="M551.333 809.667L551.667 810.333L551.333 809.667z"/>
<path style="fill:#ce5c5e; stroke:none;" d="M216 810L216 824L224 824L216 810z"/>
<path style="fill:#fba09c; stroke:none;" d="M473 811L473 815L474 815L473 811z"/>
<path style="fill:#ce5c5e; stroke:none;" d="M551.333 811.667L551.667 812.333L551.333 811.667z"/>
<path style="fill:#fba09c; stroke:none;" d="M550 812L550 815L551 815L550 812z"/>
<path style="fill:#ce5c5e; stroke:none;" d="M472 814L472 817L473 817L472 814M550.333 815.667L550.667 816.333L550.333 815.667z"/>
<path style="fill:#fba09c; stroke:none;" d="M549.333 816.667L549.667 817.333L549.333 816.667M472 817L472 822L473 822L472 817z"/>
<path style="fill:#ce5c5e; stroke:none;" d="M549.333 818.667L549.667 819.333L549.333 818.667z"/>
<path style="fill:#fba09c; stroke:none;" d="M548.333 820.667L548.667 821.333L548.333 820.667z"/>
<path style="fill:#ce5c5e; stroke:none;" d="M471 822L471 826L472 826L471 822M548.333 822.667L548.667 823.333L548.333 822.667z"/>
<path style="fill:#fba09c; stroke:none;" d="M547.333 823.667L547.667 824.333L547.333 823.667z"/>
<path style="fill:#ce5c5e; stroke:none;" d="M224 824L224 840L232 840L232 848L239 848L226 824L224 824z"/>
<path style="fill:#040303; stroke:none;" d="M976 824L976 832L968 832L968 848L960 848L960 856L1200 856L1200 824L976 824z"/>
<path style="fill:#ce5c5e; stroke:none;" d="M547.333 825.667L547.667 826.333L547.333 825.667z"/>
<path style="fill:#fba09c; stroke:none;" d="M471 826L471 832L472 832L471 826M546.333 826.667L546.667 827.333L546.333 826.667z"/>
<path style="fill:#ce5c5e; stroke:none;" d="M546.333 828.667L546.667 829.333L546.333 828.667M470 830L470 836L471 836L470 830z"/>
<path style="fill:#fba09c; stroke:none;" d="M545 830L546 831L545 830z"/>
<path style="fill:#ce5c5e; stroke:none;" d="M545.333 831.667L545.667 832.333L545.333 831.667z"/>
<path style="fill:#fba09c; stroke:none;" d="M544.333 832.667L544.667 833.333L544.333 832.667z"/>
<path style="fill:#ce5c5e; stroke:none;" d="M544.333 834.667L544.667 835.333L544.333 834.667M966 834C952.689 860.71 930.034 880.224 913 904L1200 904L1200 896L928 896L928 888L936 888L936 880L944 880L944 872L952 872L952 864L1200 864L1200 856L960 856L960 848L968 848L968 834L966 834z"/>
<path style="fill:#fba09c; stroke:none;" d="M543.333 835.667L543.667 836.333L543.333 835.667M470 836L470 846L471 846L470 836z"/>
<path style="fill:#ce5c5e; stroke:none;" d="M543 837L544 838L543 837z"/>
<path style="fill:#fba09c; stroke:none;" d="M542 838L543 839L542 838z"/>
<path style="fill:#ce5c5e; stroke:none;" d="M542.333 839.667L542.667 840.333L542.333 839.667z"/>
<path style="fill:#fba09c; stroke:none;" d="M541 841L542 842L541 841z"/>
<path style="fill:#ce5c5e; stroke:none;" d="M541 842L540 846L541 846L541 842z"/>
<path style="fill:#fba09c; stroke:none;" d="M540 843L541 844L540 843z"/>
<path style="fill:#ce5c5e; stroke:none;" d="M469 846L469 858L470 858L469 846z"/>
<path style="fill:#fba09c; stroke:none;" d="M539 846L540 847L539 846z"/>
<path style="fill:#ce5c5e; stroke:none;" d="M539 847L540 848L539 847z"/>
<path style="fill:#fba09c; stroke:none;" d="M538 848L539 849L538 848z"/>
<path style="fill:#ce5c5e; stroke:none;" d="M538 849L539 850L538 849M240 850L240 864L248 864L248 872L256 872C253.054 864.382 246.424 855.093 240 850z"/>
<path style="fill:#fba09c; stroke:none;" d="M537 850L538 851L537 850z"/>
<path style="fill:#ce5c5e; stroke:none;" d="M537 851L538 852L537 851z"/>
<path style="fill:#fba09c; stroke:none;" d="M536.333 852.667L536.667 853.333L536.333 852.667z"/>
<path style="fill:#ce5c5e; stroke:none;" d="M536 854L537 855L536 854z"/>
<path style="fill:#fba09c; stroke:none;" d="M535 855L536 856L535 855z"/>
<path style="fill:#ce5c5e; stroke:none;" d="M535 856L536 857L535 856z"/>
<path style="fill:#fba09c; stroke:none;" d="M534 857L535 858L534 857M469 858L469 868L470 868L469 858z"/>
<path style="fill:#ce5c5e; stroke:none;" d="M534 858L535 859L534 858z"/>
<path style="fill:#fba09c; stroke:none;" d="M533 859L534 860L533 859z"/>
<path style="fill:#ce5c5e; stroke:none;" d="M533 860L532 863L533 860z"/>
<path style="fill:#fba09c; stroke:none;" d="M532 861L533 862L532 861M531 863L532 864L531 863z"/>
<path style="fill:#ce5c5e; stroke:none;" d="M531 864L532 865L531 864z"/>
<path style="fill:#040303; stroke:none;" d="M952 864L952 872L944 872L944 880L936 880L936 888L928 888L928 896L1200 896L1200 864L952 864z"/>
<path style="fill:#fba09c; stroke:none;" d="M530 865L531 866L530 865z"/>
<path style="fill:#ce5c5e; stroke:none;" d="M530 866L531 867L530 866z"/>
<path style="fill:#fba09c; stroke:none;" d="M529 867L530 868L529 867z"/>
<path style="fill:#ce5c5e; stroke:none;" d="M469 868L469 883L470 883L469 868M529 868L530 869L529 868z"/>
<path style="fill:#fba09c; stroke:none;" d="M528 869L529 870L528 869z"/>
<path style="fill:#ce5c5e; stroke:none;" d="M528 870L529 871L528 870z"/>
<path style="fill:#fba09c; stroke:none;" d="M527 871L528 872L527 871z"/>
<path style="fill:#ce5c5e; stroke:none;" d="M256 872L256 880L262 880L256 872M527 872L528 873L527 872z"/>
<path style="fill:#fba09c; stroke:none;" d="M526 873L527 874L526 873M525 874L526 875L525 874z"/>
<path style="fill:#ce5c5e; stroke:none;" d="M525 875L526 876L525 875z"/>
<path style="fill:#fba09c; stroke:none;" d="M524 876L525 877L524 876z"/>
<path style="fill:#ce5c5e; stroke:none;" d="M524 877L525 878L524 877z"/>
<path style="fill:#fba09c; stroke:none;" d="M523 878L524 879L523 878z"/>
<path style="fill:#ce5c5e; stroke:none;" d="M523 879L524 880L523 879z"/>
<path style="fill:#fba09c; stroke:none;" d="M522 880L523 881L522 880z"/>
<path style="fill:#ce5c5e; stroke:none;" d="M264 881L264 888L271 888L271 887L264 881M522 881L523 882L522 881z"/>
<path style="fill:#fba09c; stroke:none;" d="M470 882L470 895L471 895L470 882M521 882L520 884L521 882z"/>
<path style="fill:#ce5c5e; stroke:none;" d="M521 883L522 884L521 883M520 884L521 885L520 884z"/>
<path style="fill:#fba09c; stroke:none;" d="M519 885L520 886L519 885z"/>
<path style="fill:#ce5c5e; stroke:none;" d="M519 886L520 887L519 886z"/>
<path style="fill:#fba09c; stroke:none;" d="M518 887L519 888L518 887M517 888L518 889L517 888z"/>
<path style="fill:#ce5c5e; stroke:none;" d="M517 889L518 890L517 889z"/>
<path style="fill:#fba09c; stroke:none;" d="M516 890L517 891L516 890z"/>
<path style="fill:#ce5c5e; stroke:none;" d="M272 891L272 904L280 904L280 912L288 912L288 920L296 920L296 928L304 928L304 936L317 936L285.075 904.674L272 891M516 891L517 892L516 891z"/>
<path style="fill:#fba09c; stroke:none;" d="M515 892L516 893L515 892M514 893L515 894L514 893z"/>
<path style="fill:#ce5c5e; stroke:none;" d="M514 894L515 895L514 894M470 895L470 901L471 901L470 895z"/>
<path style="fill:#fba09c; stroke:none;" d="M513 895L514 896L513 895M512 896L513 897L512 896z"/>
<path style="fill:#ce5c5e; stroke:none;" d="M512 897L513 898L512 897z"/>
<path style="fill:#fba09c; stroke:none;" d="M471 898L471 906L472 906L471 898M511 898L512 899L511 898z"/>
<path style="fill:#ce5c5e; stroke:none;" d="M511 899L512 900L511 899M510 900L511 901L510 900z"/>
<path style="fill:#fba09c; stroke:none;" d="M509 901L510 902L509 901z"/>
<path style="fill:#ce5c5e; stroke:none;" d="M509 902L510 903L509 902z"/>
<path style="fill:#fba09c; stroke:none;" d="M508 903L509 904L508 903M507 904L508 905L507 904z"/>
<path style="fill:#040303; stroke:none;" d="M912 904L912 912L1200 912L1200 904L912 904z"/>
<path style="fill:#ce5c5e; stroke:none;" d="M507 905L508 906L507 905M471 906L471 910L472 910L471 906z"/>
<path style="fill:#fba09c; stroke:none;" d="M506 906L507 907L506 906z"/>
<path style="fill:#ce5c5e; stroke:none;" d="M911 906L874.269 940.215L850 960L864 960L864 952L872 952L872 944L880 944L880 936L1200 936L1200 912L912 912L911 906z"/>
<path style="fill:#fba09c; stroke:none;" d="M505 907L506 908L505 907z"/>
<path style="fill:#ce5c5e; stroke:none;" d="M505 908L506 909L505 908z"/>
<path style="fill:#fba09c; stroke:none;" d="M504 909L505 910L504 909M503 910L504 911L503 910z"/>
<path style="fill:#ce5c5e; stroke:none;" d="M471 911L472 912L471 911z"/>
<path style="fill:#fba09c; stroke:none;" d="M472 911L472 916L473 916L472 911z"/>
<path style="fill:#ce5c5e; stroke:none;" d="M503 911L504 912L503 911M502 912L503 913L502 912z"/>
<path style="fill:#fba09c; stroke:none;" d="M501 913L502 914L501 913z"/>
<path style="fill:#ce5c5e; stroke:none;" d="M501 914L502 915L501 914M500 915L501 916L500 915M472 916L472 920L473 920L472 916z"/>
<path style="fill:#fba09c; stroke:none;" d="M499 916L498 918L499 916z"/>
<path style="fill:#ce5c5e; stroke:none;" d="M499 917L500 918L499 917M498 918L499 919L498 918z"/>
<path style="fill:#fba09c; stroke:none;" d="M497 919L498 920L497 919M473 920L473 924L474 924L473 920M496 920L497 921L496 920z"/>
<path style="fill:#ce5c5e; stroke:none;" d="M496 921L497 922L496 921M495 922L496 923L495 922z"/>
<path style="fill:#fba09c; stroke:none;" d="M494 923L495 924L494 923z"/>
<path style="fill:#ce5c5e; stroke:none;" d="M473 924L473 927L474 927L473 924z"/>
<path style="fill:#fba09c; stroke:none;" d="M493 924L494 925L493 924z"/>
<path style="fill:#ce5c5e; stroke:none;" d="M493 925L494 926L493 925z"/>
<path style="fill:#fba09c; stroke:none;" d="M492 926L493 927L492 926M491 927L490 929L491 927M474 928L474 932L475 932L474 928z"/>
<path style="fill:#ce5c5e; stroke:none;" d="M491 928L492 929L491 928M490 929L491 930L490 929z"/>
<path style="fill:#fba09c; stroke:none;" d="M489 930L490 931L489 930M488 931L487 933L488 931z"/>
<path style="fill:#ce5c5e; stroke:none;" d="M474 932L474 935L475 935L474 932M488 932L489 933L488 932M487 933L488 934L487 933z"/>
<path style="fill:#fba09c; stroke:none;" d="M475 934L478 939L475 934z"/>
<path style="fill:#ce5c5e; stroke:none;" d="M486 934L487 935L486 934z"/>
<path style="fill:#fba09c; stroke:none;" d="M485 935L486 936L485 935M484 936L482 939L484 936z"/>
<path style="fill:#040303; stroke:none;" d="M880 936L880 944L872 944L872 952L864 952L864 960L848 960L848 968L840 968L840 976L824 976L824 984L1200 984L1200 936L880 936z"/>
<path style="fill:#ce5c5e; stroke:none;" d="M475 937L476 938L475 937M484 937L485 938L484 937M320 938L320 944L326 944L320 938M476 938L477 939L476 938M483 938L484 939L483 938M478 939L479 940L478 939z"/>
<path style="fill:#fba09c; stroke:none;" d="M479.667 939.333L480.333 939.667L479.667 939.333z"/>
<path style="fill:#ce5c5e; stroke:none;" d="M481 939L482 940L481 939M328 944L328 952L336 952L336 960L344 960L344 968L360 968L360 967L328 944M847 960L825 975L825 976L840 976L840 968L848 968L847 960M360 968L360 976L372 976L372 974L360 968M822 976C806.019 989.964 781.769 999.884 762 1007L762 1008L1200 1008L1200 1000L800 1000L800 992L1200 992L1200 984L824 984L824 976L822 976M376 978L376 984L384 984L384 992L400 992L400 991L376 978M400 992L400 1000L416 1000L416 998L400 992z"/>
<path style="fill:#040303; stroke:none;" d="M800 992L800 1000L1200 1000L1200 992L800 992z"/>
<path style="fill:#ce5c5e; stroke:none;" d="M416 1000L416 1008L434 1008L434 1006L416 1000M758 1008C747.024 1016.77 729.108 1018.75 716 1023L716 1024L1200 1024L1200 1016L760 1016L760 1008L758 1008z"/>
<path style="fill:#040303; stroke:none;" d="M760 1008L760 1016L1200 1016L1200 1008L760 1008z"/>
<path style="fill:#ce5c5e; stroke:none;" d="M440 1009L440 1016L456 1016L456 1015L440 1009M456 1016L456 1024L482 1024C476.355 1019.7 463.154 1016.45 456 1016M711 1024C697.19 1031.42 678.156 1031.75 663 1034.26C615.163 1042.18 567.682 1039.01 520 1032L520 1040L1200 1040L1200 1032L712 1032L711 1024z"/>
<path style="fill:#040303; stroke:none;" d="M712 1024L712 1032L1200 1032L1200 1024L712 1024z"/>
<path style="fill:#ce5c5e; stroke:none;" d="M488 1025L488 1032L514 1032L514 1030L488 1025z"/>
</svg>
