<?xml version="1.0" encoding="utf-8" ?>	<!-- Generator: Assembly 2.4 - http://assemblyapp.co -->	<svg version="1.1" xmlns="http://www.w3.org/2000/svg" xmlns:xlink="http://www.w3.org/1999/xlink" width="4096.00" height="4096.00" viewBox="0 0 4096.0 4096.0">		<g id="document" transform="scale(13.653333333333334 13.653333333333334) translate(150.0 150.0)">			<path d="M-14.8271,-2.94026 C-14.8271,4.89671 -8.48291,11.2409 -0.645939,11.2409 C7.19103,11.2409 13.5353,4.89671 13.5353,-2.94026 C13.5353,-10.7772 7.19103,-17.1214 -0.645938,-17.1214 C-8.48291,-17.1214 -14.8271,-10.7772 -14.8271,-2.94026 Z M25.7421,-2.94026 C25.7421,4.89671 32.0863,11.2409 39.9233,11.2409 C47.7603,11.2409 54.1045,4.89671 54.1045,-2.94026 C54.1045,-10.7772 47.7603,-17.1214 39.9233,-17.1214 C32.0863,-17.1214 25.7421,-10.7772 25.7421,-2.94026 Z M-55.3964,-2.94026 C-55.3964,4.89671 -49.0522,11.2409 -41.2152,11.2409 C-33.3782,11.2409 -27.034,4.89671 -27.034,-2.94026 C-27.034,-10.7772 -33.3782,-17.1214 -41.2152,-17.1214 C-49.0522,-17.1214 -55.3964,-10.7772 -55.3964,-2.94026 Z " fill="#000000" fill-opacity="1.00" />		</g>	</svg>