<?xml version="1.0" encoding="utf-8" ?>	<!-- Generator: Assembly 2.4 - http://assemblyapp.co -->	<svg version="1.1" xmlns="http://www.w3.org/2000/svg" xmlns:xlink="http://www.w3.org/1999/xlink" width="4096.00" height="4096.00" viewBox="0 0 4096.0 4096.0">		<g id="document" transform="scale(13.653333333333334 13.653333333333334) translate(150.0 150.0)">			<path d="M-50.5895,141.128 C-53.6789,126.536 -49.5593,91.9598 -41.4639,62.735 C-35.7948,42.2691 -30.0253,33.1369 -31.8056,19.3822 C-33.0693,9.61909 -38.2249,-9.23057 -27.0455,-22.8847 C-9.28138,-44.5813 6.90593,-27.914 9.30164,-19.5397 C11.7542,-10.9667 0.0932123,23.8315 -2.07762,34.1841 C-2.927,38.2347 -3.4089,41.4045 -3.73671,44.1807 L-3.73671,44.1807 C13.7759,74.2312 45.4133,54.5636 55.6488,32.28 C65.9779,9.79238 68.4509,-25.6489 48.783,-45.2404 C37.5147,-56.4649 6.93861,-65.3208 -9.85085,-61.4766 C-48.1653,-52.704 -75.8904,-7.80115 -47.8433,31.8814 C-45.9593,38.5282 -46.3305,68.6541 -68.9462,46.6975 C-92.2874,24.2572 -95.4339,-27.3999 -69.3898,-57.0477 C-55.9099,-72.3927 -35.5978,-84.2009 -8.1681,-89.5859 C22.188,-95.5454 51.8655,-82.833 61.1745,-76.6217 C99.767,-50.8715 108.548,14.4226 82.7977,53.0152 C59.7578,87.5458 19.5133,93.6398 -9.20048,74.9311 C-17.4439,103.621 -30.3817,134.201 -39.8355,144.535 C19.266,160.82 84.7984,139.568 122.291,86.6587 C170.151,19.1192 154.197,-74.4303 86.6575,-122.29 C19.118,-170.15 -74.4315,-154.196 -122.291,-86.6563 C-170.151,-19.1168 -154.197,74.4327 -86.6575,122.292 C-75.2606,130.368 -63.1231,136.627 -50.5895,141.128 L-50.5895,141.128 Z " fill="#e73632" fill-opacity="1.00" />		</g>	</svg>