<?xml version="1.0" encoding="utf-8" ?>	<!-- Generator: Assembly 2.4 - http://assemblyapp.co -->	<svg version="1.1" xmlns="http://www.w3.org/2000/svg" xmlns:xlink="http://www.w3.org/1999/xlink" width="4096.00" height="4096.00" viewBox="0 0 4096.0 4096.0">		<g id="document" transform="scale(13.653333333333334 13.653333333333334) translate(150.0 150.0)">			<path d="M140.749,101.352 C128.963,79.2942 83.9588,45.5291 83.9588,45.5291 C98.6262,25.4478 100.9,6.28277 100.9,-20.6504 C100.9,-87.9529 46.4015,-142.78 -21.2294,-142.78 C-88.5319,-142.78 -143.359,-88.2812 -143.359,-20.6504 C-143.359,46.6522 -88.8603,101.479 -21.2294,101.479 C5.22709,101.479 24.8286,96.3094 44.8903,81.8285 C44.8903,81.8285 80.6277,135.127 101.151,141.705 C121.674,148.283 152.535,123.411 140.749,101.352 Z M-21.2294,64.0524 C-67.8487,64.0524 -105.604,26.2973 -105.604,-20.3221 C-105.604,-66.9414 -67.8487,-104.696 -21.2294,-104.696 C25.3899,-104.696 63.145,-66.9414 63.145,-20.3221 C63.145,26.2973 25.3899,64.0524 -21.2294,64.0524 Z " fill="#5c5c5c" fill-opacity="1.00" stroke-width="6.39" stroke="#5c5c5c" stroke-linecap="square" stroke-linejoin="miter" />		</g>	</svg>