<?xml version="1.0" encoding="utf-8" ?>	<!-- Generator: Assembly 2.4 - http://assemblyapp.co -->	<svg version="1.1" xmlns="http://www.w3.org/2000/svg" xmlns:xlink="http://www.w3.org/1999/xlink" width="4096.00" height="4096.00" viewBox="0 0 4096.0 4096.0">		<g id="document" transform="scale(13.653333333333334 13.653333333333334) translate(150.0 150.0)">			<path d="M-137.316,44.3114 L-137.316,117.94 C-137.316,133.759 -124.408,146.473 -108.783,146.473 C108.189,146.468 108.485,146.473 108.782,146.473 C124.407,146.473 137.315,133.662 137.315,117.94 L137.315,117.873 L137.315,44.3114 C137.412,28.5892 124.505,15.7786 108.782,15.7786 C93.0602,15.7786 80.2496,28.5892 80.2496,44.3114 L80.2496,85.292 L-80.2501,85.292 L-80.2501,44.3114 C-80.1531,28.5892 -93.0608,15.7786 -108.783,15.7786 C-124.505,15.7786 -137.316,28.5892 -137.316,44.3114 Z M-25.691,-49.3917 L-25.691,20.5902 C-25.691,34.8337 -14.069,46.2809 -0.000246905,46.2809 C14.0685,46.2809 25.6905,34.7463 25.6905,20.5902 L25.6905,-47.1136 L38.4899,-34.3142 C48.4998,-24.3043 64.874,-24.3661 74.8221,-34.3142 C84.7702,-44.2623 84.8938,-60.5747 74.8221,-70.6463 L-1.0046,-146.473 L-1.48389,-145.994 L-1.48389,-145.994 L-1.61857,-146.128 L-77.4453,-70.3017 C-87.5169,-60.2301 -87.3934,-43.9177 -77.4453,-33.9696 C-67.4972,-24.0215 -51.123,-23.9597 -41.1131,-33.9696 L-25.691,-49.3917 Z " fill="#000000" fill-opacity="1.00" />		</g>	</svg>